<svg aria-hidden="true" style="position: absolute; width: 0; height: 0; overflow: hidden;" version="1.1" xmlns="http://www.w3.org/2000/svg" xmlns:xlink="http://www.w3.org/1999/xlink">
<defs>
<symbol id="icon-close" viewBox="0 0 11 11">
<path d="M11 1.108l-1.108-1.108-4.392 4.392-4.392-4.392-1.108 1.108 4.392 4.392-4.392 4.392 1.108 1.108 4.392-4.392 4.392 4.392 1.108-1.108-4.392-4.392 4.392-4.392z"></path>
</symbol>
<symbol id="icon-smartphone" viewBox="0 0 7 11">
<path fill="#fff" style="fill: var(--color1, #fff)" d="M5.844 0h-4.813c-0.569 0-1.031 0.463-1.031 1.031v8.938c0 0.569 0.463 1.031 1.031 1.031h4.813c0.569 0 1.031-0.463 1.031-1.031v-8.938c0-0.569-0.463-1.031-1.031-1.031zM1.031 0.688h4.813c0.19 0 0.344 0.154 0.344 0.344v7.219h-5.5v-7.219c0-0.19 0.154-0.344 0.344-0.344zM5.844 10.313h-4.813c-0.19 0-0.344-0.154-0.344-0.344v-1.031h5.5v1.031c0 0.19-0.154 0.344-0.344 0.344z"></path>
<path fill="#fff" style="fill: var(--color1, #fff)" d="M1.618 9.445c0.134 0.125 0.134 0.329 0 0.454s-0.352 0.125-0.486 0c-0.134-0.125-0.134-0.329 0-0.454s0.352-0.125 0.486 0z"></path>
</symbol>
<symbol id="icon-smartphone1" viewBox="0 0 7 11">
<path fill="#2196f3" style="fill: var(--color2, #2196f3)" d="M5.844 0h-4.813c-0.569 0-1.031 0.463-1.031 1.031v8.938c0 0.569 0.463 1.031 1.031 1.031h4.813c0.569 0 1.031-0.463 1.031-1.031v-8.938c0-0.569-0.463-1.031-1.031-1.031zM1.031 0.688h4.813c0.19 0 0.344 0.154 0.344 0.344v7.219h-5.5v-7.219c0-0.19 0.154-0.344 0.344-0.344zM5.844 10.313h-4.813c-0.19 0-0.344-0.154-0.344-0.344v-1.031h5.5v1.031c0 0.19-0.154 0.344-0.344 0.344z"></path>
<path fill="#2196f3" style="fill: var(--color2, #2196f3)" d="M1.618 9.445c0.134 0.125 0.134 0.329 0 0.454s-0.352 0.125-0.486 0c-0.134-0.125-0.134-0.329 0-0.454s0.352-0.125 0.486 0z"></path>
</symbol>
<symbol id="icon-smartphone2" viewBox="0 0 7 11">
<path fill="#757575" style="fill: var(--color3, #757575)" d="M5.844 0h-4.813c-0.569 0-1.031 0.463-1.031 1.031v8.938c0 0.569 0.463 1.031 1.031 1.031h4.813c0.569 0 1.031-0.463 1.031-1.031v-8.938c0-0.569-0.463-1.031-1.031-1.031zM1.031 0.688h4.813c0.19 0 0.344 0.154 0.344 0.344v7.219h-5.5v-7.219c0-0.19 0.154-0.344 0.344-0.344zM5.844 10.313h-4.813c-0.19 0-0.344-0.154-0.344-0.344v-1.031h5.5v1.031c0 0.19-0.154 0.344-0.344 0.344z"></path>
<path fill="#757575" style="fill: var(--color3, #757575)" d="M1.618 9.445c0.134 0.125 0.134 0.329 0 0.454s-0.352 0.125-0.486 0c-0.134-0.125-0.134-0.329 0-0.454s0.352-0.125 0.486 0z"></path>
</symbol>
<symbol id="icon-e-mail" viewBox="0 0 15 11">
<path fill="#fff" style="fill: var(--color1, #fff)" d="M13.292 0h-11.917c-0.758 0-1.375 0.617-1.375 1.375v8.25c0 0.758 0.617 1.375 1.375 1.375h11.917c0.758 0 1.375-0.617 1.375-1.375v-8.25c0-0.758-0.617-1.375-1.375-1.375zM13.292 0.917c0.062 0 0.121 0.013 0.176 0.035l-6.134 5.316-6.134-5.316c0.054-0.023 0.113-0.035 0.176-0.035h11.917zM13.292 10.083h-11.917c-0.253 0-0.458-0.205-0.458-0.458v-7.704l6.116 5.301c0.086 0.075 0.193 0.112 0.3 0.112s0.214-0.037 0.3-0.112l6.116-5.301v7.704c0 0.253-0.205 0.458-0.458 0.458z"></path>
</symbol>
<symbol id="icon-e-mail1" viewBox="0 0 15 11">
<path fill="#2196f3" style="fill: var(--color2, #2196f3)" d="M13.292 0h-11.917c-0.758 0-1.375 0.617-1.375 1.375v8.25c0 0.758 0.617 1.375 1.375 1.375h11.917c0.758 0 1.375-0.617 1.375-1.375v-8.25c0-0.758-0.617-1.375-1.375-1.375zM13.292 0.917c0.062 0 0.121 0.013 0.176 0.035l-6.134 5.316-6.134-5.316c0.054-0.023 0.113-0.035 0.176-0.035h11.917zM13.292 10.083h-11.917c-0.253 0-0.458-0.205-0.458-0.458v-7.704l6.116 5.301c0.086 0.075 0.193 0.112 0.3 0.112s0.214-0.037 0.3-0.112l6.116-5.301v7.704c0 0.253-0.205 0.458-0.458 0.458z"></path>
</symbol>
<symbol id="icon-e-mail2" viewBox="0 0 15 11">
<path fill="#757575" style="fill: var(--color3, #757575)" d="M13.292 0h-11.917c-0.758 0-1.375 0.617-1.375 1.375v8.25c0 0.758 0.617 1.375 1.375 1.375h11.917c0.758 0 1.375-0.617 1.375-1.375v-8.25c0-0.758-0.617-1.375-1.375-1.375zM13.292 0.917c0.062 0 0.121 0.013 0.176 0.035l-6.134 5.316-6.134-5.316c0.054-0.023 0.113-0.035 0.176-0.035h11.917zM13.292 10.083h-11.917c-0.253 0-0.458-0.205-0.458-0.458v-7.704l6.116 5.301c0.086 0.075 0.193 0.112 0.3 0.112s0.214-0.037 0.3-0.112l6.116-5.301v7.704c0 0.253-0.205 0.458-0.458 0.458z"></path>
</symbol>
<symbol id="icon-icon-facebook" viewBox="0 0 11 11">
<path fill="#fff" style="fill: var(--color1, #fff)" d="M7.332 1.826h1.004v-1.749c-0.173-0.024-0.769-0.077-1.463-0.077-1.448 0-2.44 0.911-2.44 2.585v1.54h-1.598v1.955h1.598v4.92h1.959v-4.919h1.533l0.243-1.955h-1.777v-1.347c0-0.565 0.153-0.952 0.94-0.952z"></path>
</symbol>
<symbol id="icon-icon-facebook1" viewBox="0 0 11 11">
<path fill="#2196f3" style="fill: var(--color2, #2196f3)" d="M7.332 1.826h1.004v-1.749c-0.173-0.024-0.769-0.077-1.463-0.077-1.448 0-2.44 0.911-2.44 2.585v1.54h-1.598v1.955h1.598v4.92h1.959v-4.919h1.533l0.243-1.955h-1.777v-1.347c0-0.565 0.153-0.952 0.94-0.952z"></path>
</symbol>
<symbol id="icon-icon-facebook2" viewBox="0 0 11 11">
<path fill="#afb1b8" style="fill: var(--color4, #afb1b8)" d="M7.332 1.826h1.004v-1.749c-0.173-0.024-0.769-0.077-1.463-0.077-1.448 0-2.44 0.911-2.44 2.585v1.54h-1.598v1.955h1.598v4.92h1.959v-4.919h1.533l0.243-1.955h-1.777v-1.347c0-0.565 0.153-0.952 0.94-0.952z"></path>
</symbol>
<symbol id="icon-icon-instagram" viewBox="0 0 11 11">
<path fill="#fff" style="fill: var(--color1, #fff)" d="M10.989 3.234c-0.026-0.584-0.12-0.986-0.256-1.334-0.14-0.37-0.355-0.701-0.636-0.976-0.275-0.279-0.608-0.496-0.974-0.634-0.35-0.135-0.75-0.23-1.334-0.256-0.589-0.028-0.776-0.034-2.269-0.034s-1.68 0.007-2.267 0.032c-0.584 0.026-0.986 0.12-1.334 0.256-0.37 0.14-0.701 0.354-0.976 0.636-0.279 0.275-0.496 0.608-0.634 0.974-0.135 0.35-0.23 0.75-0.256 1.334-0.028 0.589-0.034 0.776-0.034 2.269s0.007 1.68 0.032 2.267c0.026 0.584 0.12 0.986 0.256 1.334 0.14 0.37 0.357 0.701 0.636 0.976 0.275 0.279 0.608 0.496 0.974 0.634 0.35 0.135 0.75 0.23 1.334 0.256 0.586 0.026 0.773 0.032 2.267 0.032s1.68-0.007 2.267-0.032c0.584-0.026 0.986-0.12 1.334-0.256 0.739-0.286 1.324-0.87 1.609-1.609 0.135-0.35 0.23-0.75 0.256-1.334 0.026-0.587 0.032-0.774 0.032-2.267s-0.002-1.68-0.028-2.267zM9.999 7.725c-0.024 0.537-0.114 0.827-0.189 1.021-0.185 0.479-0.565 0.859-1.044 1.044-0.194 0.075-0.486 0.165-1.021 0.189-0.58 0.026-0.754 0.032-2.222 0.032s-1.644-0.007-2.222-0.032c-0.537-0.024-0.827-0.114-1.021-0.189-0.239-0.088-0.455-0.228-0.632-0.41-0.183-0.178-0.322-0.393-0.41-0.632-0.075-0.194-0.165-0.486-0.189-1.021-0.026-0.58-0.032-0.754-0.032-2.222s0.007-1.644 0.032-2.222c0.024-0.537 0.114-0.827 0.189-1.021 0.088-0.239 0.228-0.455 0.413-0.632 0.178-0.183 0.393-0.322 0.632-0.41 0.194-0.075 0.486-0.165 1.021-0.189 0.58-0.026 0.754-0.032 2.222-0.032 1.47 0 1.644 0.007 2.222 0.032 0.537 0.024 0.827 0.114 1.021 0.189 0.239 0.088 0.455 0.228 0.632 0.41 0.183 0.178 0.322 0.393 0.41 0.632 0.075 0.194 0.165 0.486 0.189 1.021 0.026 0.58 0.032 0.754 0.032 2.222s-0.007 1.64-0.032 2.22z"></path>
<path fill="#fff" style="fill: var(--color1, #fff)" d="M5.52 2.675c-1.56 0-2.826 1.266-2.826 2.826s1.266 2.826 2.826 2.826c1.56 0 2.826-1.266 2.826-2.826s-1.266-2.826-2.826-2.826zM5.52 7.334c-1.012 0-1.833-0.821-1.833-1.833s0.821-1.833 1.833-1.833c1.012 0 1.833 0.821 1.833 1.833s-0.821 1.833-1.833 1.833z"></path>
<path fill="#fff" style="fill: var(--color1, #fff)" d="M9.118 2.564c0 0.364-0.295 0.66-0.66 0.66s-0.66-0.295-0.66-0.66c0-0.364 0.295-0.66 0.66-0.66s0.66 0.295 0.66 0.66z"></path>
</symbol>
<symbol id="icon-icon-instagram1" viewBox="0 0 11 11">
<path fill="#2196f3" style="fill: var(--color2, #2196f3)" d="M10.989 3.234c-0.026-0.584-0.12-0.986-0.256-1.334-0.14-0.37-0.355-0.701-0.636-0.976-0.275-0.279-0.608-0.496-0.974-0.634-0.35-0.135-0.75-0.23-1.334-0.256-0.589-0.028-0.776-0.034-2.269-0.034s-1.68 0.007-2.267 0.032c-0.584 0.026-0.986 0.12-1.334 0.256-0.37 0.14-0.701 0.354-0.976 0.636-0.279 0.275-0.496 0.608-0.634 0.974-0.135 0.35-0.23 0.75-0.256 1.334-0.028 0.589-0.034 0.776-0.034 2.269s0.007 1.68 0.032 2.267c0.026 0.584 0.12 0.986 0.256 1.334 0.14 0.37 0.357 0.701 0.636 0.976 0.275 0.279 0.608 0.496 0.974 0.634 0.35 0.135 0.75 0.23 1.334 0.256 0.586 0.026 0.773 0.032 2.267 0.032s1.68-0.007 2.267-0.032c0.584-0.026 0.986-0.12 1.334-0.256 0.739-0.286 1.324-0.87 1.609-1.609 0.135-0.35 0.23-0.75 0.256-1.334 0.026-0.587 0.032-0.774 0.032-2.267s-0.002-1.68-0.028-2.267zM9.999 7.725c-0.024 0.537-0.114 0.827-0.189 1.021-0.185 0.479-0.565 0.859-1.044 1.044-0.194 0.075-0.486 0.165-1.021 0.189-0.58 0.026-0.754 0.032-2.222 0.032s-1.644-0.007-2.222-0.032c-0.537-0.024-0.827-0.114-1.021-0.189-0.239-0.088-0.455-0.228-0.632-0.41-0.183-0.178-0.322-0.393-0.41-0.632-0.075-0.194-0.165-0.486-0.189-1.021-0.026-0.58-0.032-0.754-0.032-2.222s0.007-1.644 0.032-2.222c0.024-0.537 0.114-0.827 0.189-1.021 0.088-0.239 0.228-0.455 0.413-0.632 0.178-0.183 0.393-0.322 0.632-0.41 0.194-0.075 0.486-0.165 1.021-0.189 0.58-0.026 0.754-0.032 2.222-0.032 1.47 0 1.644 0.007 2.222 0.032 0.537 0.024 0.827 0.114 1.021 0.189 0.239 0.088 0.455 0.228 0.632 0.41 0.183 0.178 0.322 0.393 0.41 0.632 0.075 0.194 0.165 0.486 0.189 1.021 0.026 0.58 0.032 0.754 0.032 2.222s-0.007 1.64-0.032 2.22z"></path>
<path fill="#2196f3" style="fill: var(--color2, #2196f3)" d="M5.52 2.675c-1.56 0-2.826 1.266-2.826 2.826s1.266 2.826 2.826 2.826c1.56 0 2.826-1.266 2.826-2.826s-1.266-2.826-2.826-2.826zM5.52 7.334c-1.012 0-1.833-0.821-1.833-1.833s0.821-1.833 1.833-1.833c1.012 0 1.833 0.821 1.833 1.833s-0.821 1.833-1.833 1.833z"></path>
<path fill="#2196f3" style="fill: var(--color2, #2196f3)" d="M9.118 2.564c0 0.364-0.295 0.66-0.66 0.66s-0.66-0.295-0.66-0.66c0-0.364 0.295-0.66 0.66-0.66s0.66 0.295 0.66 0.66z"></path>
</symbol>
<symbol id="icon-icon-instagram2" viewBox="0 0 11 11">
<path fill="#afb1b8" style="fill: var(--color4, #afb1b8)" d="M10.989 3.234c-0.026-0.584-0.12-0.986-0.256-1.334-0.14-0.37-0.355-0.701-0.636-0.976-0.275-0.279-0.608-0.496-0.974-0.634-0.35-0.135-0.75-0.23-1.334-0.256-0.589-0.028-0.776-0.034-2.269-0.034s-1.68 0.007-2.267 0.032c-0.584 0.026-0.986 0.12-1.334 0.256-0.37 0.14-0.701 0.354-0.976 0.636-0.279 0.275-0.496 0.608-0.634 0.974-0.135 0.35-0.23 0.75-0.256 1.334-0.028 0.589-0.034 0.776-0.034 2.269s0.007 1.68 0.032 2.267c0.026 0.584 0.12 0.986 0.256 1.334 0.14 0.37 0.357 0.701 0.636 0.976 0.275 0.279 0.608 0.496 0.974 0.634 0.35 0.135 0.75 0.23 1.334 0.256 0.586 0.026 0.773 0.032 2.267 0.032s1.68-0.007 2.267-0.032c0.584-0.026 0.986-0.12 1.334-0.256 0.739-0.286 1.324-0.87 1.609-1.609 0.135-0.35 0.23-0.75 0.256-1.334 0.026-0.587 0.032-0.774 0.032-2.267s-0.002-1.68-0.028-2.267zM9.999 7.725c-0.024 0.537-0.114 0.827-0.189 1.021-0.185 0.479-0.565 0.859-1.044 1.044-0.194 0.075-0.486 0.165-1.021 0.189-0.58 0.026-0.754 0.032-2.222 0.032s-1.644-0.007-2.222-0.032c-0.537-0.024-0.827-0.114-1.021-0.189-0.239-0.088-0.455-0.228-0.632-0.41-0.183-0.178-0.322-0.393-0.41-0.632-0.075-0.194-0.165-0.486-0.189-1.021-0.026-0.58-0.032-0.754-0.032-2.222s0.007-1.644 0.032-2.222c0.024-0.537 0.114-0.827 0.189-1.021 0.088-0.239 0.228-0.455 0.413-0.632 0.178-0.183 0.393-0.322 0.632-0.41 0.194-0.075 0.486-0.165 1.021-0.189 0.58-0.026 0.754-0.032 2.222-0.032 1.47 0 1.644 0.007 2.222 0.032 0.537 0.024 0.827 0.114 1.021 0.189 0.239 0.088 0.455 0.228 0.632 0.41 0.183 0.178 0.322 0.393 0.41 0.632 0.075 0.194 0.165 0.486 0.189 1.021 0.026 0.58 0.032 0.754 0.032 2.222s-0.007 1.64-0.032 2.22z"></path>
<path fill="#afb1b8" style="fill: var(--color4, #afb1b8)" d="M5.52 2.675c-1.56 0-2.826 1.266-2.826 2.826s1.266 2.826 2.826 2.826c1.56 0 2.826-1.266 2.826-2.826s-1.266-2.826-2.826-2.826zM5.52 7.334c-1.012 0-1.833-0.821-1.833-1.833s0.821-1.833 1.833-1.833c1.012 0 1.833 0.821 1.833 1.833s-0.821 1.833-1.833 1.833z"></path>
<path fill="#afb1b8" style="fill: var(--color4, #afb1b8)" d="M9.118 2.564c0 0.364-0.295 0.66-0.66 0.66s-0.66-0.295-0.66-0.66c0-0.364 0.295-0.66 0.66-0.66s0.66 0.295 0.66 0.66z"></path>
</symbol>
<symbol id="icon-icon-linkedin" viewBox="0 0 11 11">
<path fill="#fff" style="fill: var(--color1, #fff)" d="M10.997 11v-0h0.003v-4.034c0-1.973-0.425-3.494-2.732-3.494-1.109 0-1.854 0.609-2.157 1.186h-0.032v-1.001h-2.188v7.344h2.278v-3.637c0-0.957 0.181-1.883 1.367-1.883 1.168 0 1.186 1.093 1.186 1.945v3.575h2.276z"></path>
<path fill="#fff" style="fill: var(--color1, #fff)" d="M0.181 3.656h2.281v7.344h-2.281v-7.344z"></path>
<path fill="#fff" style="fill: var(--color1, #fff)" d="M1.321 0c-0.729 0-1.321 0.592-1.321 1.321s0.592 1.333 1.321 1.333c0.729 0 1.321-0.604 1.321-1.333s-0.592-1.321-1.321-1.321v0z"></path>
</symbol>
<symbol id="icon-icon-linkedin1" viewBox="0 0 11 11">
<path fill="#2196f3" style="fill: var(--color2, #2196f3)" d="M10.997 11v-0h0.003v-4.034c0-1.973-0.425-3.494-2.732-3.494-1.109 0-1.854 0.609-2.157 1.186h-0.032v-1.001h-2.188v7.344h2.278v-3.637c0-0.957 0.181-1.883 1.367-1.883 1.168 0 1.186 1.093 1.186 1.945v3.575h2.276z"></path>
<path fill="#2196f3" style="fill: var(--color2, #2196f3)" d="M0.181 3.656h2.281v7.344h-2.281v-7.344z"></path>
<path fill="#2196f3" style="fill: var(--color2, #2196f3)" d="M1.321 0c-0.729 0-1.321 0.592-1.321 1.321s0.592 1.333 1.321 1.333c0.729 0 1.321-0.604 1.321-1.333s-0.592-1.321-1.321-1.321v0z"></path>
</symbol>
<symbol id="icon-icon-linkedin2" viewBox="0 0 11 11">
<path fill="#afb1b8" style="fill: var(--color4, #afb1b8)" d="M10.997 11v-0h0.003v-4.034c0-1.973-0.425-3.494-2.732-3.494-1.109 0-1.854 0.609-2.157 1.186h-0.032v-1.001h-2.188v7.344h2.278v-3.637c0-0.957 0.181-1.883 1.367-1.883 1.168 0 1.186 1.093 1.186 1.945v3.575h2.276z"></path>
<path fill="#afb1b8" style="fill: var(--color4, #afb1b8)" d="M0.181 3.656h2.281v7.344h-2.281v-7.344z"></path>
<path fill="#afb1b8" style="fill: var(--color4, #afb1b8)" d="M1.321 0c-0.729 0-1.321 0.592-1.321 1.321s0.592 1.333 1.321 1.333c0.729 0 1.321-0.604 1.321-1.333s-0.592-1.321-1.321-1.321v0z"></path>
</symbol>
<symbol id="icon-icon-twitter" viewBox="0 0 11 11">
<path fill="#fff" style="fill: var(--color1, #fff)" d="M11 2.089c-0.409 0.179-0.845 0.298-1.299 0.356 0.468-0.279 0.824-0.718 0.992-1.246-0.436 0.26-0.917 0.443-1.43 0.546-0.414-0.441-1.004-0.714-1.647-0.714-1.249 0-2.254 1.013-2.254 2.256 0 0.179 0.015 0.351 0.052 0.514-1.875-0.091-3.534-0.99-4.648-2.359-0.195 0.338-0.309 0.724-0.309 1.14 0 0.781 0.402 1.473 1.002 1.874-0.362-0.007-0.718-0.112-1.019-0.278 0 0.007 0 0.016 0 0.025 0 1.096 0.782 2.006 1.807 2.216-0.184 0.050-0.384 0.074-0.591 0.074-0.144 0-0.29-0.008-0.427-0.038 0.292 0.893 1.121 1.55 2.107 1.571-0.767 0.6-1.741 0.962-2.796 0.962-0.185 0-0.362-0.008-0.54-0.031 0.999 0.644 2.183 1.012 3.459 1.012 4.15 0 6.419-3.438 6.419-6.417 0-0.1-0.003-0.196-0.008-0.292 0.448-0.318 0.824-0.714 1.13-1.171z"></path>
</symbol>
<symbol id="icon-icon-twitter1" viewBox="0 0 11 11">
<path fill="#2196f3" style="fill: var(--color2, #2196f3)" d="M11 2.089c-0.409 0.179-0.845 0.298-1.299 0.356 0.468-0.279 0.824-0.718 0.992-1.246-0.436 0.26-0.917 0.443-1.43 0.546-0.414-0.441-1.004-0.714-1.647-0.714-1.249 0-2.254 1.013-2.254 2.256 0 0.179 0.015 0.351 0.052 0.514-1.875-0.091-3.534-0.99-4.648-2.359-0.195 0.338-0.309 0.724-0.309 1.14 0 0.781 0.402 1.473 1.002 1.874-0.362-0.007-0.718-0.112-1.019-0.278 0 0.007 0 0.016 0 0.025 0 1.096 0.782 2.006 1.807 2.216-0.184 0.050-0.384 0.074-0.591 0.074-0.144 0-0.29-0.008-0.427-0.038 0.292 0.893 1.121 1.55 2.107 1.571-0.767 0.6-1.741 0.962-2.796 0.962-0.185 0-0.362-0.008-0.54-0.031 0.999 0.644 2.183 1.012 3.459 1.012 4.15 0 6.419-3.438 6.419-6.417 0-0.1-0.003-0.196-0.008-0.292 0.448-0.318 0.824-0.714 1.13-1.171z"></path>
</symbol>
<symbol id="icon-icon-twitter2" viewBox="0 0 11 11">
<path fill="#afb1b8" style="fill: var(--color4, #afb1b8)" d="M11 2.089c-0.409 0.179-0.845 0.298-1.299 0.356 0.468-0.279 0.824-0.718 0.992-1.246-0.436 0.26-0.917 0.443-1.43 0.546-0.414-0.441-1.004-0.714-1.647-0.714-1.249 0-2.254 1.013-2.254 2.256 0 0.179 0.015 0.351 0.052 0.514-1.875-0.091-3.534-0.99-4.648-2.359-0.195 0.338-0.309 0.724-0.309 1.14 0 0.781 0.402 1.473 1.002 1.874-0.362-0.007-0.718-0.112-1.019-0.278 0 0.007 0 0.016 0 0.025 0 1.096 0.782 2.006 1.807 2.216-0.184 0.050-0.384 0.074-0.591 0.074-0.144 0-0.29-0.008-0.427-0.038 0.292 0.893 1.121 1.55 2.107 1.571-0.767 0.6-1.741 0.962-2.796 0.962-0.185 0-0.362-0.008-0.54-0.031 0.999 0.644 2.183 1.012 3.459 1.012 4.15 0 6.419-3.438 6.419-6.417 0-0.1-0.003-0.196-0.008-0.292 0.448-0.318 0.824-0.714 1.13-1.171z"></path>
</symbol>
<symbol id="icon-Client1b_logo" viewBox="0 0 10 11">
<path fill="#2196f3" style="fill: var(--color2, #2196f3)" d="M1.404 0l1.64 1.553-3.044-0.002v7.533h7.957v-2.88l1.638 1.551v-7.755h-8.191zM7.885 6.022l-4.65-4.402h4.65v4.402zM6.442 7.982h-5.182v-5.066h0.366v4.723h4.816v0.343zM2.483 10.087l-0.191 0.394-0.191-0.394h-0.161l0.279 0.526v0.306h0.145v-0.306l0.279-0.526h-0.16zM2.723 10.919l0.067-0.194h0.322l0.068 0.194h0.151l-0.315-0.832h-0.13l-0.314 0.832h0.15zM2.952 10.264l0.121 0.345h-0.241l0.121-0.345zM3.714 10.589c-0.021 0.032-0.031 0.067-0.031 0.106 0 0.070 0.025 0.127 0.074 0.171s0.115 0.065 0.198 0.065 0.153-0.022 0.213-0.067l0.047 0.055h0.161l-0.122-0.145c0.048-0.066 0.072-0.15 0.072-0.252h-0.121c0 0.056-0.012 0.107-0.035 0.153l-0.161-0.19 0.057-0.041c0.040-0.029 0.069-0.058 0.086-0.087s0.026-0.061 0.026-0.096c0-0.053-0.019-0.097-0.058-0.132s-0.088-0.054-0.149-0.054c-0.067 0-0.12 0.019-0.16 0.057s-0.059 0.089-0.059 0.154c0 0.027 0.006 0.054 0.019 0.083s0.036 0.063 0.068 0.104c-0.062 0.044-0.103 0.082-0.124 0.115zM4.090 10.773c-0.041 0.031-0.085 0.047-0.131 0.047-0.042 0-0.075-0.012-0.099-0.036s-0.037-0.055-0.037-0.094c0-0.045 0.023-0.084 0.069-0.119l0.018-0.013 0.182 0.214zM3.941 10.404c-0.039-0.048-0.059-0.089-0.059-0.121 0-0.028 0.008-0.051 0.024-0.069s0.038-0.027 0.065-0.027c0.025 0 0.046 0.008 0.062 0.023s0.025 0.034 0.025 0.055c0 0.033-0.012 0.060-0.035 0.081l-0.018 0.014-0.063 0.043zM5.295 10.856c0.057-0.050 0.090-0.119 0.098-0.208h-0.144c-0.008 0.059-0.026 0.102-0.054 0.127s-0.071 0.038-0.128 0.038c-0.062 0-0.109-0.024-0.142-0.071s-0.048-0.116-0.048-0.206v-0.074c0.001-0.089 0.018-0.156 0.051-0.202s0.082-0.069 0.145-0.069c0.054 0 0.095 0.013 0.123 0.040s0.046 0.069 0.053 0.129h0.144c-0.009-0.091-0.042-0.162-0.098-0.211s-0.13-0.075-0.222-0.075c-0.068 0-0.128 0.016-0.181 0.049s-0.092 0.078-0.119 0.138c-0.028 0.060-0.042 0.129-0.042 0.207v0.078c0.001 0.077 0.015 0.144 0.043 0.202s0.066 0.103 0.117 0.134c0.051 0.031 0.109 0.047 0.175 0.047 0.095 0 0.171-0.025 0.228-0.074zM6.144 10.74c0.028-0.062 0.042-0.133 0.042-0.215v-0.046c-0-0.081-0.015-0.152-0.043-0.213s-0.069-0.108-0.122-0.141c-0.052-0.033-0.112-0.049-0.18-0.049s-0.128 0.017-0.181 0.050c-0.052 0.033-0.093 0.080-0.122 0.142s-0.043 0.134-0.043 0.215v0.047c0 0.080 0.015 0.15 0.043 0.211s0.070 0.108 0.122 0.141c0.053 0.033 0.113 0.049 0.181 0.049s0.128-0.016 0.181-0.049c0.053-0.033 0.093-0.080 0.121-0.142zM5.99 10.269c0.035 0.049 0.053 0.12 0.053 0.212v0.043c0 0.094-0.017 0.165-0.052 0.214s-0.083 0.073-0.147 0.073c-0.063 0-0.113-0.025-0.149-0.075s-0.053-0.121-0.053-0.212v-0.048c0.001-0.090 0.019-0.159 0.054-0.207s0.084-0.074 0.147-0.074c0.064 0 0.113 0.025 0.148 0.074z"></path>
</symbol>
<symbol id="icon-Client1_logo" viewBox="0 0 10 11">
<path fill="#afb1b8" style="fill: var(--color4, #afb1b8)" d="M1.404 0l1.64 1.553-3.044-0.002v7.533h7.957v-2.88l1.638 1.551v-7.755h-8.191zM7.885 6.022l-4.65-4.402h4.65v4.402zM6.442 7.982h-5.182v-5.066h0.366v4.723h4.816v0.343zM2.483 10.087l-0.191 0.394-0.191-0.394h-0.161l0.279 0.526v0.306h0.145v-0.306l0.279-0.526h-0.16zM2.723 10.919l0.067-0.194h0.322l0.068 0.194h0.151l-0.315-0.832h-0.13l-0.314 0.832h0.15zM2.952 10.264l0.121 0.345h-0.241l0.121-0.345zM3.714 10.589c-0.021 0.032-0.031 0.067-0.031 0.106 0 0.070 0.025 0.127 0.074 0.171s0.115 0.065 0.198 0.065 0.153-0.022 0.213-0.067l0.047 0.055h0.161l-0.122-0.145c0.048-0.066 0.072-0.15 0.072-0.252h-0.121c0 0.056-0.012 0.107-0.035 0.153l-0.161-0.19 0.057-0.041c0.040-0.029 0.069-0.058 0.086-0.087s0.026-0.061 0.026-0.096c0-0.053-0.019-0.097-0.058-0.132s-0.088-0.054-0.149-0.054c-0.067 0-0.12 0.019-0.16 0.057s-0.059 0.089-0.059 0.154c0 0.027 0.006 0.054 0.019 0.083s0.036 0.063 0.068 0.104c-0.062 0.044-0.103 0.082-0.124 0.115zM4.090 10.773c-0.041 0.031-0.085 0.047-0.131 0.047-0.042 0-0.075-0.012-0.099-0.036s-0.037-0.055-0.037-0.094c0-0.045 0.023-0.084 0.069-0.119l0.018-0.013 0.182 0.214zM3.941 10.404c-0.039-0.048-0.059-0.089-0.059-0.121 0-0.028 0.008-0.051 0.024-0.069s0.038-0.027 0.065-0.027c0.025 0 0.046 0.008 0.062 0.023s0.025 0.034 0.025 0.055c0 0.033-0.012 0.060-0.035 0.081l-0.018 0.014-0.063 0.043zM5.295 10.856c0.057-0.050 0.090-0.119 0.098-0.208h-0.144c-0.008 0.059-0.026 0.102-0.054 0.127s-0.071 0.038-0.128 0.038c-0.062 0-0.109-0.024-0.142-0.071s-0.048-0.116-0.048-0.206v-0.074c0.001-0.089 0.018-0.156 0.051-0.202s0.082-0.069 0.145-0.069c0.054 0 0.095 0.013 0.123 0.040s0.046 0.069 0.053 0.129h0.144c-0.009-0.091-0.042-0.162-0.098-0.211s-0.13-0.075-0.222-0.075c-0.068 0-0.128 0.016-0.181 0.049s-0.092 0.078-0.119 0.138c-0.028 0.060-0.042 0.129-0.042 0.207v0.078c0.001 0.077 0.015 0.144 0.043 0.202s0.066 0.103 0.117 0.134c0.051 0.031 0.109 0.047 0.175 0.047 0.095 0 0.171-0.025 0.228-0.074zM6.144 10.74c0.028-0.062 0.042-0.133 0.042-0.215v-0.046c-0-0.081-0.015-0.152-0.043-0.213s-0.069-0.108-0.122-0.141c-0.052-0.033-0.112-0.049-0.18-0.049s-0.128 0.017-0.181 0.050c-0.052 0.033-0.093 0.080-0.122 0.142s-0.043 0.134-0.043 0.215v0.047c0 0.080 0.015 0.15 0.043 0.211s0.070 0.108 0.122 0.141c0.053 0.033 0.113 0.049 0.181 0.049s0.128-0.016 0.181-0.049c0.053-0.033 0.093-0.080 0.121-0.142zM5.99 10.269c0.035 0.049 0.053 0.12 0.053 0.212v0.043c0 0.094-0.017 0.165-0.052 0.214s-0.083 0.073-0.147 0.073c-0.063 0-0.113-0.025-0.149-0.075s-0.053-0.121-0.053-0.212v-0.048c0.001-0.090 0.019-0.159 0.054-0.207s0.084-0.074 0.147-0.074c0.064 0 0.113 0.025 0.148 0.074z"></path>
</symbol>
<symbol id="icon-Client2b_logo" viewBox="0 0 8 11">
<path fill="#2196f3" style="fill: var(--color2, #2196f3)" d="M3.62 0.621h-0.029c-0.044-0.003-0.089-0.004-0.133-0.005v0h-0.096c-0.084 0-0.17 0.002-0.255 0.006-0.006-0-0.013-0-0.019 0-0.771 0.044-1.526 0.236-2.225 0.568l-0.092 0.044v4.684l0.214-0.073c0.188-0.065 0.388-0.123 0.595-0.176 0.56-0.144 1.135-0.22 1.712-0.228v0.615c-0.077 0.001-0.151 0.003-0.225 0.006h-0.018c-0.445 0.024-0.886 0.092-1.318 0.202-0.547 0.137-1.074 0.342-1.57 0.612v-6.007c0.515-0.3 1.069-0.526 1.647-0.67 0.507-0.131 1.028-0.198 1.552-0.2h0.090c0.108 0.003 0.214 0.008 0.313 0.015 0.261 0.018 0.52 0.060 0.773 0.123v0.606c-0.246-0.057-0.497-0.095-0.749-0.113-0.005-0-0.010-0.001-0.015-0.001-0.052-0.004-0.104-0.009-0.153-0.009zM4.686 1.24c0.134 0.010 0.273 0.015 0.414 0.015 0.55-0.002 1.098-0.072 1.632-0.209 0.546-0.137 1.073-0.343 1.569-0.612v5.9c-0.515 0.3-1.069 0.525-1.647 0.67-0.507 0.13-1.028 0.197-1.552 0.2-0.397 0.003-0.792-0.043-1.177-0.139v-5.938c0.091 0.021 0.185 0.040 0.28 0.056 0.156 0.026 0.321 0.046 0.482 0.058zM7.689 1.286l-0.214 0.072c-0.197 0.066-0.395 0.125-0.595 0.178-0.581 0.149-1.178 0.226-1.778 0.228-0.14 0-0.268-0.004-0.392-0.012l-0.171-0.011v4.818l0.147 0.013c0.136 0.012 0.276 0.018 0.417 0.018 0.472-0.002 0.943-0.063 1.4-0.181 0.377-0.095 0.743-0.226 1.094-0.393l0.092-0.044v-4.685z"></path>
<path fill="#2196f3" style="fill: var(--color2, #2196f3)" d="M0.579 8.93c-0.031-0.032-0.068-0.057-0.109-0.074s-0.085-0.024-0.129-0.023c-0.047-0.001-0.094 0.008-0.138 0.026-0.040 0.016-0.076 0.040-0.107 0.070s-0.054 0.067-0.069 0.108c-0.017 0.042-0.025 0.087-0.025 0.133v0.803c-0.002 0.057 0.009 0.113 0.032 0.165 0.019 0.041 0.046 0.078 0.080 0.108 0.032 0.027 0.070 0.046 0.11 0.057 0.039 0.011 0.079 0.017 0.12 0.017 0.045 0 0.089-0.009 0.13-0.028 0.040-0.018 0.076-0.043 0.107-0.074s0.054-0.068 0.070-0.108c0.017-0.040 0.026-0.084 0.026-0.128v-0.090h-0.21v0.072c0.001 0.024-0.004 0.049-0.012 0.072-0.007 0.017-0.017 0.032-0.031 0.045-0.013 0.010-0.028 0.018-0.044 0.023-0.014 0.005-0.029 0.007-0.044 0.008-0.019 0.002-0.038-0.001-0.055-0.008s-0.032-0.020-0.043-0.035c-0.020-0.032-0.029-0.070-0.028-0.108v-0.748c-0.001-0.041 0.008-0.083 0.026-0.12 0.011-0.017 0.026-0.030 0.044-0.039s0.038-0.012 0.058-0.009c0.018-0.001 0.036 0.003 0.052 0.011s0.030 0.020 0.041 0.034c0.023 0.031 0.036 0.069 0.035 0.108v0.069h0.208v-0.082c0-0.048-0.008-0.096-0.026-0.14-0.016-0.042-0.039-0.080-0.070-0.113z"></path>
<path fill="#2196f3" style="fill: var(--color2, #2196f3)" d="M1.825 8.92c-0.067-0.056-0.151-0.088-0.239-0.088-0.043 0-0.085 0.008-0.125 0.023s-0.078 0.037-0.111 0.066c-0.035 0.031-0.062 0.070-0.081 0.112-0.021 0.049-0.032 0.102-0.030 0.155v0.77c-0.001 0.054 0.009 0.108 0.030 0.158 0.019 0.041 0.047 0.078 0.081 0.108 0.032 0.030 0.070 0.053 0.111 0.068s0.083 0.022 0.125 0.023c0.043-0 0.085-0.008 0.125-0.023 0.042-0.015 0.080-0.038 0.113-0.068s0.060-0.067 0.079-0.108c0.022-0.050 0.032-0.103 0.030-0.158v-0.77c0.001-0.053-0.009-0.106-0.030-0.155-0.019-0.042-0.046-0.081-0.079-0.112zM1.727 9.958c0.002 0.021-0.001 0.041-0.008 0.060s-0.019 0.037-0.033 0.051c-0.028 0.023-0.063 0.036-0.099 0.036s-0.071-0.013-0.099-0.036c-0.015-0.014-0.026-0.032-0.033-0.051s-0.010-0.040-0.008-0.060v-0.77c-0.002-0.021 0.001-0.041 0.008-0.060s0.019-0.037 0.033-0.051c0.028-0.023 0.063-0.036 0.099-0.036s0.071 0.013 0.099 0.036c0.015 0.014 0.026 0.032 0.033 0.051s0.010 0.040 0.008 0.060v0.77z"></path>
<path fill="#2196f3" style="fill: var(--color2, #2196f3)" d="M3.462 10.302v-1.457h-0.202l-0.265 0.771h-0.004l-0.267-0.771h-0.2v1.457h0.208v-0.886h0.004l0.204 0.627h0.104l0.205-0.627h0.004v0.886h0.208z"></path>
<path fill="#2196f3" style="fill: var(--color2, #2196f3)" d="M4.645 8.947c-0.032-0.036-0.073-0.063-0.118-0.080-0.049-0.016-0.1-0.023-0.151-0.023h-0.309v1.457h0.208v-0.569h0.107c0.065 0.003 0.129-0.011 0.187-0.040 0.047-0.026 0.087-0.065 0.114-0.111 0.024-0.039 0.040-0.082 0.048-0.127 0.008-0.055 0.012-0.11 0.011-0.166 0.002-0.070-0.005-0.14-0.020-0.208-0.014-0.050-0.040-0.097-0.077-0.134zM4.538 9.391c-0.001 0.026-0.007 0.052-0.019 0.076-0.012 0.022-0.031 0.040-0.053 0.051-0.031 0.014-0.064 0.020-0.098 0.018h-0.095v-0.495h0.107c0.032-0.002 0.064 0.005 0.094 0.018 0.021 0.012 0.039 0.031 0.049 0.054 0.011 0.026 0.018 0.053 0.018 0.081 0 0.031 0 0.063 0 0.097s0.002 0.069 0 0.1h-0.002z"></path>
<path fill="#2196f3" style="fill: var(--color2, #2196f3)" d="M5.629 8.845h-0.17l-0.321 1.457h0.208l0.061-0.313h0.283l0.061 0.313h0.208l-0.329-1.457zM5.437 9.79l0.102-0.528h0.004l0.102 0.528h-0.208z"></path>
<path fill="#2196f3" style="fill: var(--color2, #2196f3)" d="M6.97 9.722h-0.004l-0.314-0.878h-0.2v1.457h0.208v-0.876h0.004l0.317 0.876h0.195v-1.457h-0.208v0.878z"></path>
<path fill="#2196f3" style="fill: var(--color2, #2196f3)" d="M8.239 8.845l-0.167 0.579h-0.004l-0.167-0.579h-0.22l0.285 0.841v0.616h0.208v-0.616l0.285-0.841h-0.22z"></path>
<path fill="#2196f3" style="fill: var(--color2, #2196f3)" d="M0 10.713h0.1v0.281h0.068v-0.281h0.1v-0.058h-0.268v0.058z"></path>
<path fill="#2196f3" style="fill: var(--color2, #2196f3)" d="M0.841 10.656l-0.131 0.338h0.072l0.028-0.077h0.135l0.029 0.077h0.074l-0.134-0.338h-0.072zM0.831 10.86l0.046-0.125 0.046 0.125h-0.092z"></path>
<path fill="#2196f3" style="fill: var(--color2, #2196f3)" d="M1.673 10.869h0.078v0.044c-0.023 0.018-0.051 0.028-0.080 0.029-0.014 0.001-0.027-0.002-0.040-0.007s-0.023-0.014-0.032-0.025c-0.018-0.026-0.027-0.057-0.025-0.088 0-0.075 0.033-0.113 0.097-0.113 0.017-0.002 0.034 0.003 0.048 0.013s0.024 0.024 0.028 0.041l0.067-0.013c-0.014-0.066-0.062-0.1-0.143-0.1-0.044-0.001-0.086 0.014-0.118 0.044-0.017 0.017-0.030 0.037-0.039 0.060s-0.012 0.047-0.010 0.070c-0.002 0.046 0.014 0.092 0.043 0.127 0.017 0.017 0.037 0.030 0.059 0.039s0.046 0.012 0.070 0.011c0.053 0.001 0.104-0.018 0.143-0.054v-0.133h-0.147v0.057z"></path>
<path fill="#2196f3" style="fill: var(--color2, #2196f3)" d="M2.522 10.656h-0.068v0.338h0.237v-0.058h-0.169v-0.281z"></path>
<path fill="#2196f3" style="fill: var(--color2, #2196f3)" d="M3.24 10.656h-0.068v0.338h0.068v-0.338z"></path>
<path fill="#2196f3" style="fill: var(--color2, #2196f3)" d="M3.942 10.882l-0.139-0.226h-0.066v0.338h0.064v-0.221l0.136 0.221h0.068v-0.338h-0.063v0.226z"></path>
<path fill="#2196f3" style="fill: var(--color2, #2196f3)" d="M4.577 10.845h0.169v-0.058h-0.169v-0.074h0.181v-0.058h-0.25v0.338h0.257v-0.058h-0.188v-0.091z"></path>
<path fill="#2196f3" style="fill: var(--color2, #2196f3)" d="M6.116 10.789h-0.133v-0.133h-0.068v0.338h0.068v-0.148h0.133v0.148h0.068v-0.338h-0.068v0.133z"></path>
<path fill="#2196f3" style="fill: var(--color2, #2196f3)" d="M6.754 10.845h0.169v-0.058h-0.169v-0.074h0.182v-0.058h-0.25v0.338h0.256v-0.058h-0.188v-0.091z"></path>
<path fill="#2196f3" style="fill: var(--color2, #2196f3)" d="M7.62 10.845c0.059-0.009 0.089-0.040 0.089-0.094 0.002-0.014-0-0.029-0.006-0.042s-0.015-0.025-0.027-0.033c-0.031-0.015-0.065-0.022-0.099-0.020h-0.143v0.338h0.068v-0.141h0.013c0.014-0.001 0.029 0.002 0.042 0.008 0.010 0.006 0.018 0.015 0.024 0.025l0.074 0.108h0.081l-0.041-0.066c-0.018-0.033-0.044-0.060-0.075-0.081zM7.552 10.798h-0.050v-0.085h0.053c0.023-0.002 0.047 0.001 0.069 0.008 0.005 0.004 0.009 0.010 0.011 0.016s0.004 0.013 0.003 0.019c-0 0.007-0.002 0.013-0.005 0.019s-0.008 0.011-0.013 0.015c-0.022 0.007-0.046 0.010-0.069 0.008z"></path>
<path fill="#2196f3" style="fill: var(--color2, #2196f3)" d="M8.273 10.845h0.169v-0.058h-0.169v-0.074h0.182v-0.058h-0.25v0.338h0.257v-0.058h-0.188v-0.091z"></path>
</symbol>
<symbol id="icon-Client2_logo" viewBox="0 0 8 11">
<path fill="#afb1b8" style="fill: var(--color4, #afb1b8)" d="M3.62 0.621h-0.029c-0.044-0.003-0.089-0.004-0.133-0.005v0h-0.096c-0.084 0-0.17 0.002-0.255 0.006-0.006-0-0.013-0-0.019 0-0.771 0.044-1.526 0.236-2.225 0.568l-0.092 0.044v4.684l0.214-0.073c0.188-0.065 0.388-0.123 0.595-0.176 0.56-0.144 1.135-0.22 1.712-0.228v0.615c-0.077 0.001-0.151 0.003-0.225 0.006h-0.018c-0.445 0.024-0.886 0.092-1.318 0.202-0.547 0.137-1.074 0.342-1.57 0.612v-6.007c0.515-0.3 1.069-0.526 1.647-0.67 0.507-0.131 1.028-0.198 1.552-0.2h0.090c0.108 0.003 0.214 0.008 0.313 0.015 0.261 0.018 0.52 0.060 0.773 0.123v0.606c-0.246-0.057-0.497-0.095-0.749-0.113-0.005-0-0.010-0.001-0.015-0.001-0.052-0.004-0.104-0.009-0.153-0.009zM4.686 1.24c0.134 0.010 0.273 0.015 0.414 0.015 0.55-0.002 1.098-0.072 1.632-0.209 0.546-0.137 1.073-0.343 1.569-0.612v5.9c-0.515 0.3-1.069 0.525-1.647 0.67-0.507 0.13-1.028 0.197-1.552 0.2-0.397 0.003-0.792-0.043-1.177-0.139v-5.938c0.091 0.021 0.185 0.040 0.28 0.056 0.156 0.026 0.321 0.046 0.482 0.058zM7.689 1.286l-0.214 0.072c-0.197 0.066-0.395 0.125-0.595 0.178-0.581 0.149-1.178 0.226-1.778 0.228-0.14 0-0.268-0.004-0.392-0.012l-0.171-0.011v4.818l0.147 0.013c0.136 0.012 0.276 0.018 0.417 0.018 0.472-0.002 0.943-0.063 1.4-0.181 0.377-0.095 0.743-0.226 1.094-0.393l0.092-0.044v-4.685z"></path>
<path fill="#afb1b8" style="fill: var(--color4, #afb1b8)" d="M0.579 8.93c-0.031-0.032-0.068-0.057-0.109-0.074s-0.085-0.024-0.129-0.023c-0.047-0.001-0.094 0.008-0.138 0.026-0.040 0.016-0.076 0.040-0.107 0.070s-0.054 0.067-0.069 0.108c-0.017 0.042-0.025 0.087-0.025 0.133v0.803c-0.002 0.057 0.009 0.113 0.032 0.165 0.019 0.041 0.046 0.078 0.080 0.108 0.032 0.027 0.070 0.046 0.11 0.057 0.039 0.011 0.079 0.017 0.12 0.017 0.045 0 0.089-0.009 0.13-0.028 0.040-0.018 0.076-0.043 0.107-0.074s0.054-0.068 0.070-0.108c0.017-0.040 0.026-0.084 0.026-0.128v-0.090h-0.21v0.072c0.001 0.024-0.004 0.049-0.012 0.072-0.007 0.017-0.017 0.032-0.031 0.045-0.013 0.010-0.028 0.018-0.044 0.023-0.014 0.005-0.029 0.007-0.044 0.008-0.019 0.002-0.038-0.001-0.055-0.008s-0.032-0.020-0.043-0.035c-0.020-0.032-0.029-0.070-0.028-0.108v-0.748c-0.001-0.041 0.008-0.083 0.026-0.12 0.011-0.017 0.026-0.030 0.044-0.039s0.038-0.012 0.058-0.009c0.018-0.001 0.036 0.003 0.052 0.011s0.030 0.020 0.041 0.034c0.023 0.031 0.036 0.069 0.035 0.108v0.069h0.208v-0.082c0-0.048-0.008-0.096-0.026-0.14-0.016-0.042-0.039-0.080-0.070-0.113z"></path>
<path fill="#afb1b8" style="fill: var(--color4, #afb1b8)" d="M1.825 8.92c-0.067-0.056-0.151-0.088-0.239-0.088-0.043 0-0.085 0.008-0.125 0.023s-0.078 0.037-0.111 0.066c-0.035 0.031-0.062 0.070-0.081 0.112-0.021 0.049-0.032 0.102-0.030 0.155v0.77c-0.001 0.054 0.009 0.108 0.030 0.158 0.019 0.041 0.047 0.078 0.081 0.108 0.032 0.030 0.070 0.053 0.111 0.068s0.083 0.022 0.125 0.023c0.043-0 0.085-0.008 0.125-0.023 0.042-0.015 0.080-0.038 0.113-0.068s0.060-0.067 0.079-0.108c0.022-0.050 0.032-0.103 0.030-0.158v-0.77c0.001-0.053-0.009-0.106-0.030-0.155-0.019-0.042-0.046-0.081-0.079-0.112zM1.727 9.958c0.002 0.021-0.001 0.041-0.008 0.060s-0.019 0.037-0.033 0.051c-0.028 0.023-0.063 0.036-0.099 0.036s-0.071-0.013-0.099-0.036c-0.015-0.014-0.026-0.032-0.033-0.051s-0.010-0.040-0.008-0.060v-0.77c-0.002-0.021 0.001-0.041 0.008-0.060s0.019-0.037 0.033-0.051c0.028-0.023 0.063-0.036 0.099-0.036s0.071 0.013 0.099 0.036c0.015 0.014 0.026 0.032 0.033 0.051s0.010 0.040 0.008 0.060v0.77z"></path>
<path fill="#afb1b8" style="fill: var(--color4, #afb1b8)" d="M3.462 10.302v-1.457h-0.202l-0.265 0.771h-0.004l-0.267-0.771h-0.2v1.457h0.208v-0.886h0.004l0.204 0.627h0.104l0.205-0.627h0.004v0.886h0.208z"></path>
<path fill="#afb1b8" style="fill: var(--color4, #afb1b8)" d="M4.645 8.947c-0.032-0.036-0.073-0.063-0.118-0.080-0.049-0.016-0.1-0.023-0.151-0.023h-0.309v1.457h0.208v-0.569h0.107c0.065 0.003 0.129-0.011 0.187-0.040 0.047-0.026 0.087-0.065 0.114-0.111 0.024-0.039 0.040-0.082 0.048-0.127 0.008-0.055 0.012-0.11 0.011-0.166 0.002-0.070-0.005-0.14-0.020-0.208-0.014-0.050-0.040-0.097-0.077-0.134zM4.538 9.391c-0.001 0.026-0.007 0.052-0.019 0.076-0.012 0.022-0.031 0.040-0.053 0.051-0.031 0.014-0.064 0.020-0.098 0.018h-0.095v-0.495h0.107c0.032-0.002 0.064 0.005 0.094 0.018 0.021 0.012 0.039 0.031 0.049 0.054 0.011 0.026 0.018 0.053 0.018 0.081 0 0.031 0 0.063 0 0.097s0.002 0.069 0 0.1h-0.002z"></path>
<path fill="#afb1b8" style="fill: var(--color4, #afb1b8)" d="M5.629 8.845h-0.17l-0.321 1.457h0.208l0.061-0.313h0.283l0.061 0.313h0.208l-0.329-1.457zM5.437 9.79l0.102-0.528h0.004l0.102 0.528h-0.208z"></path>
<path fill="#afb1b8" style="fill: var(--color4, #afb1b8)" d="M6.97 9.722h-0.004l-0.314-0.878h-0.2v1.457h0.208v-0.876h0.004l0.317 0.876h0.195v-1.457h-0.208v0.878z"></path>
<path fill="#afb1b8" style="fill: var(--color4, #afb1b8)" d="M8.239 8.845l-0.167 0.579h-0.004l-0.167-0.579h-0.22l0.285 0.841v0.616h0.208v-0.616l0.285-0.841h-0.22z"></path>
<path fill="#afb1b8" style="fill: var(--color4, #afb1b8)" d="M0 10.713h0.1v0.281h0.068v-0.281h0.1v-0.058h-0.268v0.058z"></path>
<path fill="#afb1b8" style="fill: var(--color4, #afb1b8)" d="M0.841 10.656l-0.131 0.338h0.072l0.028-0.077h0.135l0.029 0.077h0.074l-0.134-0.338h-0.072zM0.831 10.86l0.046-0.125 0.046 0.125h-0.092z"></path>
<path fill="#afb1b8" style="fill: var(--color4, #afb1b8)" d="M1.673 10.869h0.078v0.044c-0.023 0.018-0.051 0.028-0.080 0.029-0.014 0.001-0.027-0.002-0.040-0.007s-0.023-0.014-0.032-0.025c-0.018-0.026-0.027-0.057-0.025-0.088 0-0.075 0.033-0.113 0.097-0.113 0.017-0.002 0.034 0.003 0.048 0.013s0.024 0.024 0.028 0.041l0.067-0.013c-0.014-0.066-0.062-0.1-0.143-0.1-0.044-0.001-0.086 0.014-0.118 0.044-0.017 0.017-0.030 0.037-0.039 0.060s-0.012 0.047-0.010 0.070c-0.002 0.046 0.014 0.092 0.043 0.127 0.017 0.017 0.037 0.030 0.059 0.039s0.046 0.012 0.070 0.011c0.053 0.001 0.104-0.018 0.143-0.054v-0.133h-0.147v0.057z"></path>
<path fill="#afb1b8" style="fill: var(--color4, #afb1b8)" d="M2.522 10.656h-0.068v0.338h0.237v-0.058h-0.169v-0.281z"></path>
<path fill="#afb1b8" style="fill: var(--color4, #afb1b8)" d="M3.24 10.656h-0.068v0.338h0.068v-0.338z"></path>
<path fill="#afb1b8" style="fill: var(--color4, #afb1b8)" d="M3.942 10.882l-0.139-0.226h-0.066v0.338h0.064v-0.221l0.136 0.221h0.068v-0.338h-0.063v0.226z"></path>
<path fill="#afb1b8" style="fill: var(--color4, #afb1b8)" d="M4.577 10.845h0.169v-0.058h-0.169v-0.074h0.181v-0.058h-0.25v0.338h0.257v-0.058h-0.188v-0.091z"></path>
<path fill="#afb1b8" style="fill: var(--color4, #afb1b8)" d="M6.116 10.789h-0.133v-0.133h-0.068v0.338h0.068v-0.148h0.133v0.148h0.068v-0.338h-0.068v0.133z"></path>
<path fill="#afb1b8" style="fill: var(--color4, #afb1b8)" d="M6.754 10.845h0.169v-0.058h-0.169v-0.074h0.182v-0.058h-0.25v0.338h0.256v-0.058h-0.188v-0.091z"></path>
<path fill="#afb1b8" style="fill: var(--color4, #afb1b8)" d="M7.62 10.845c0.059-0.009 0.089-0.040 0.089-0.094 0.002-0.014-0-0.029-0.006-0.042s-0.015-0.025-0.027-0.033c-0.031-0.015-0.065-0.022-0.099-0.020h-0.143v0.338h0.068v-0.141h0.013c0.014-0.001 0.029 0.002 0.042 0.008 0.010 0.006 0.018 0.015 0.024 0.025l0.074 0.108h0.081l-0.041-0.066c-0.018-0.033-0.044-0.060-0.075-0.081zM7.552 10.798h-0.050v-0.085h0.053c0.023-0.002 0.047 0.001 0.069 0.008 0.005 0.004 0.009 0.010 0.011 0.016s0.004 0.013 0.003 0.019c-0 0.007-0.002 0.013-0.005 0.019s-0.008 0.011-0.013 0.015c-0.022 0.007-0.046 0.010-0.069 0.008z"></path>
<path fill="#afb1b8" style="fill: var(--color4, #afb1b8)" d="M8.273 10.845h0.169v-0.058h-0.169v-0.074h0.182v-0.058h-0.25v0.338h0.257v-0.058h-0.188v-0.091z"></path>
</symbol>
<symbol id="icon-Client3b_logo" viewBox="0 0 12 11">
<path fill="#2196f3" style="fill: var(--color2, #2196f3)" d="M1.94 10.765c0.004 0 0.008 0.001 0.012 0.002s0.007 0.004 0.010 0.006l0.057 0.055c-0.044 0.044-0.099 0.080-0.161 0.104-0.072 0.026-0.15 0.039-0.228 0.037-0.073 0.001-0.146-0.011-0.214-0.035-0.061-0.022-0.116-0.056-0.161-0.098-0.046-0.044-0.081-0.095-0.104-0.151-0.025-0.062-0.037-0.128-0.036-0.194-0.001-0.066 0.012-0.133 0.039-0.195 0.025-0.056 0.063-0.108 0.111-0.151s0.107-0.076 0.171-0.099c0.070-0.024 0.145-0.035 0.221-0.035 0.070-0.001 0.14 0.009 0.205 0.032 0.057 0.021 0.108 0.051 0.154 0.088l-0.048 0.058c-0.003 0.004-0.007 0.008-0.012 0.011s-0.012 0.005-0.019 0.004c-0.007-0-0.015-0.003-0.021-0.006l-0.026-0.016-0.036-0.020c-0.015-0.007-0.031-0.014-0.048-0.019-0.021-0.007-0.043-0.012-0.065-0.016-0.028-0.005-0.056-0.007-0.085-0.006-0.054-0.001-0.108 0.008-0.159 0.026-0.047 0.016-0.089 0.041-0.124 0.073-0.036 0.034-0.063 0.073-0.081 0.117-0.020 0.049-0.030 0.101-0.029 0.154-0.001 0.053 0.009 0.106 0.029 0.156 0.017 0.043 0.044 0.082 0.079 0.116 0.033 0.032 0.073 0.056 0.119 0.072 0.047 0.017 0.097 0.025 0.147 0.025 0.029 0 0.058-0.001 0.087-0.005 0.047-0.005 0.092-0.019 0.132-0.042 0.020-0.011 0.039-0.024 0.056-0.038 0.007-0.006 0.017-0.010 0.027-0.010z"></path>
<path fill="#2196f3" style="fill: var(--color2, #2196f3)" d="M3.589 10.49c0.001 0.066-0.012 0.131-0.039 0.193-0.023 0.056-0.060 0.107-0.108 0.15s-0.105 0.076-0.169 0.098c-0.14 0.046-0.294 0.046-0.434 0-0.063-0.022-0.12-0.056-0.168-0.099s-0.085-0.095-0.109-0.151c-0.051-0.125-0.051-0.262 0-0.387 0.024-0.056 0.061-0.108 0.109-0.152 0.048-0.041 0.105-0.074 0.168-0.095 0.14-0.047 0.295-0.047 0.434 0 0.063 0.022 0.121 0.056 0.169 0.099s0.084 0.094 0.108 0.15c0.026 0.062 0.040 0.128 0.039 0.194zM3.439 10.49c0.001-0.053-0.008-0.105-0.027-0.155-0.016-0.043-0.042-0.082-0.076-0.116-0.033-0.032-0.075-0.057-0.121-0.073-0.102-0.034-0.214-0.034-0.316 0-0.046 0.016-0.087 0.041-0.121 0.073-0.035 0.033-0.061 0.073-0.077 0.116-0.036 0.101-0.036 0.209 0 0.31 0.016 0.043 0.042 0.082 0.077 0.116 0.034 0.032 0.075 0.056 0.121 0.073 0.102 0.033 0.214 0.033 0.316 0 0.046-0.016 0.087-0.041 0.121-0.073 0.034-0.034 0.060-0.073 0.076-0.116 0.019-0.050 0.028-0.102 0.027-0.155z"></path>
<path fill="#2196f3" style="fill: var(--color2, #2196f3)" d="M4.715 10.653l0.015 0.035c0.006-0.012 0.011-0.024 0.016-0.035s0.012-0.023 0.019-0.034l0.365-0.576c0.007-0.010 0.014-0.016 0.021-0.018 0.010-0.003 0.020-0.004 0.030-0.003h0.108v0.937h-0.128v-0.689c0-0.009 0-0.019 0-0.029s-0.001-0.022 0-0.032l-0.367 0.584c-0.005 0.009-0.012 0.016-0.022 0.021s-0.020 0.008-0.031 0.008h-0.021c-0.011 0-0.022-0.003-0.031-0.008s-0.017-0.013-0.021-0.021l-0.378-0.588c0 0.011 0 0.022 0 0.033s0 0.021 0 0.030v0.689h-0.124v-0.936h0.108c0.010-0.001 0.020 0.001 0.030 0.003 0.009 0.004 0.016 0.010 0.020 0.018l0.373 0.577c0.007 0.011 0.014 0.022 0.019 0.033z"></path>
<path fill="#2196f3" style="fill: var(--color2, #2196f3)" d="M6.088 10.606v0.351h-0.143v-0.936h0.318c0.060-0.001 0.12 0.006 0.178 0.020 0.046 0.011 0.089 0.031 0.126 0.058 0.032 0.025 0.056 0.057 0.071 0.092 0.017 0.038 0.025 0.079 0.024 0.12 0.001 0.041-0.008 0.082-0.026 0.12-0.017 0.036-0.044 0.068-0.077 0.094-0.037 0.028-0.080 0.049-0.126 0.062-0.056 0.015-0.114 0.023-0.172 0.022l-0.173-0.002zM6.088 10.506h0.173c0.038 0 0.075-0.004 0.111-0.014 0.030-0.009 0.057-0.022 0.080-0.040 0.021-0.017 0.038-0.038 0.049-0.062 0.012-0.025 0.018-0.052 0.017-0.079 0.002-0.026-0.003-0.052-0.014-0.076s-0.028-0.046-0.050-0.064c-0.055-0.037-0.123-0.055-0.192-0.050h-0.173v0.386z"></path>
<path fill="#2196f3" style="fill: var(--color2, #2196f3)" d="M8.007 10.959h-0.113c-0.011 0-0.022-0.003-0.031-0.009s-0.014-0.013-0.019-0.022l-0.097-0.226h-0.488l-0.101 0.226c-0.004 0.008-0.010 0.016-0.018 0.021-0.009 0.006-0.020 0.010-0.032 0.009h-0.113l0.428-0.938h0.149l0.434 0.938zM7.3 10.611h0.403l-0.17-0.382c-0.013-0.029-0.024-0.058-0.032-0.088l-0.016 0.049c-0.005 0.015-0.011 0.029-0.016 0.040l-0.169 0.381z"></path>
<path fill="#2196f3" style="fill: var(--color2, #2196f3)" d="M8.624 10.026c0.009 0.004 0.016 0.010 0.021 0.017l0.625 0.707c0-0.011 0-0.022 0-0.033s0-0.021 0-0.031v-0.664h0.128v0.937h-0.071c-0.010 0-0.020-0.002-0.029-0.006s-0.017-0.010-0.023-0.017l-0.624-0.706c0.001 0.011 0.001 0.022 0 0.032s0 0.020 0 0.029v0.668h-0.128v-0.937h0.076c0.009-0 0.018 0.001 0.026 0.004z"></path>
<path fill="#2196f3" style="fill: var(--color2, #2196f3)" d="M10.451 10.586v0.372h-0.143v-0.372l-0.395-0.565h0.128c0.011-0.001 0.022 0.002 0.031 0.008 0.008 0.006 0.014 0.013 0.019 0.021l0.247 0.364c0.010 0.016 0.019 0.030 0.026 0.043s0.013 0.027 0.018 0.040l0.019-0.040c0.007-0.015 0.015-0.029 0.024-0.043l0.244-0.367c0.005-0.007 0.011-0.014 0.019-0.020 0.008-0.006 0.019-0.010 0.031-0.009h0.129l-0.396 0.567z"></path>
<path fill="#2196f3" style="fill: var(--color2, #2196f3)" d="M4.644 8.448c0.062 0.007 0.125 0.012 0.189 0.017 0.964-0.374 1.779-0.987 2.343-1.762s0.854-1.677 0.832-2.594l-1.062-0.923c0.216 0.976 0.115 1.985-0.292 2.915s-1.103 1.742-2.011 2.347z"></path>
<path fill="#2196f3" style="fill: var(--color2, #2196f3)" d="M4.265 8.405l0.029 0.005c0.97-0.603 1.71-1.445 2.123-2.417s0.482-2.029 0.196-3.035l-1.512-1.314c0.612 1.080 0.858 2.289 0.71 3.486s-0.684 2.333-1.546 3.275z"></path>
<path fill="#2196f3" style="fill: var(--color2, #2196f3)" d="M9.394 5.193c-0.257 1.007-0.881 1.916-1.779 2.591-0.262 0.198-0.545 0.375-0.845 0.527 0.732-0.187 1.404-0.517 1.966-0.965s0.997-1.003 1.273-1.62l-0.613-0.532z"></path>
<path fill="#2196f3" style="fill: var(--color2, #2196f3)" d="M9.153 5.044l-0.873-0.759c-0.017 0.865-0.3 1.711-0.82 2.448s-1.258 1.341-2.137 1.748h0.004c0.196-0 0.392-0.010 0.586-0.030 0.822-0.291 1.548-0.755 2.113-1.349s0.952-1.301 1.127-2.057z"></path>
<path fill="#2196f3" style="fill: var(--color2, #2196f3)" d="M4.391 1.090l-1.042-0.906c-0.931 0.313-1.732 0.862-2.298 1.577s-0.87 1.561-0.873 2.429v0c0.003 0.959 0.375 1.889 1.055 2.643s1.631 1.29 2.701 1.523c0.956-1.011 1.515-2.261 1.597-3.568s-0.318-2.602-1.141-3.698z"></path>
<path fill="#2196f3" style="fill: var(--color2, #2196f3)" d="M11.56 4.905c-0.004-1.137-0.525-2.227-1.451-3.031s-2.18-1.257-3.489-1.261c-0.605-0.001-1.205 0.096-1.769 0.286l6.379 5.542c0.218-0.49 0.33-1.011 0.33-1.536z"></path>
</symbol>
<symbol id="icon-Client3_logo" viewBox="0 0 12 11">
<path fill="#afb1b8" style="fill: var(--color4, #afb1b8)" d="M1.94 10.765c0.004 0 0.008 0.001 0.012 0.002s0.007 0.004 0.010 0.006l0.057 0.055c-0.044 0.044-0.099 0.080-0.161 0.104-0.072 0.026-0.15 0.039-0.228 0.037-0.073 0.001-0.146-0.011-0.214-0.035-0.061-0.022-0.116-0.056-0.161-0.098-0.046-0.044-0.081-0.095-0.104-0.151-0.025-0.062-0.037-0.128-0.036-0.194-0.001-0.066 0.012-0.133 0.039-0.195 0.025-0.056 0.063-0.108 0.111-0.151s0.107-0.076 0.171-0.099c0.070-0.024 0.145-0.035 0.221-0.035 0.070-0.001 0.14 0.009 0.205 0.032 0.057 0.021 0.108 0.051 0.154 0.088l-0.048 0.058c-0.003 0.004-0.007 0.008-0.012 0.011s-0.012 0.005-0.019 0.004c-0.007-0-0.015-0.003-0.021-0.006l-0.026-0.016-0.036-0.020c-0.015-0.007-0.031-0.014-0.048-0.019-0.021-0.007-0.043-0.012-0.065-0.016-0.028-0.005-0.056-0.007-0.085-0.006-0.054-0.001-0.108 0.008-0.159 0.026-0.047 0.016-0.089 0.041-0.124 0.073-0.036 0.034-0.063 0.073-0.081 0.117-0.020 0.049-0.030 0.101-0.029 0.154-0.001 0.053 0.009 0.106 0.029 0.156 0.017 0.043 0.044 0.082 0.079 0.116 0.033 0.032 0.073 0.056 0.119 0.072 0.047 0.017 0.097 0.025 0.147 0.025 0.029 0 0.058-0.001 0.087-0.005 0.047-0.005 0.092-0.019 0.132-0.042 0.020-0.011 0.039-0.024 0.056-0.038 0.007-0.006 0.017-0.010 0.027-0.010z"></path>
<path fill="#afb1b8" style="fill: var(--color4, #afb1b8)" d="M3.589 10.49c0.001 0.066-0.012 0.131-0.039 0.193-0.023 0.056-0.060 0.107-0.108 0.15s-0.105 0.076-0.169 0.098c-0.14 0.046-0.294 0.046-0.434 0-0.063-0.022-0.12-0.056-0.168-0.099s-0.085-0.095-0.109-0.151c-0.051-0.125-0.051-0.262 0-0.387 0.024-0.056 0.061-0.108 0.109-0.152 0.048-0.041 0.105-0.074 0.168-0.095 0.14-0.047 0.295-0.047 0.434 0 0.063 0.022 0.121 0.056 0.169 0.099s0.084 0.094 0.108 0.15c0.026 0.062 0.040 0.128 0.039 0.194zM3.439 10.49c0.001-0.053-0.008-0.105-0.027-0.155-0.016-0.043-0.042-0.082-0.076-0.116-0.033-0.032-0.075-0.057-0.121-0.073-0.102-0.034-0.214-0.034-0.316 0-0.046 0.016-0.087 0.041-0.121 0.073-0.035 0.033-0.061 0.073-0.077 0.116-0.036 0.101-0.036 0.209 0 0.31 0.016 0.043 0.042 0.082 0.077 0.116 0.034 0.032 0.075 0.056 0.121 0.073 0.102 0.033 0.214 0.033 0.316 0 0.046-0.016 0.087-0.041 0.121-0.073 0.034-0.034 0.060-0.073 0.076-0.116 0.019-0.050 0.028-0.102 0.027-0.155z"></path>
<path fill="#afb1b8" style="fill: var(--color4, #afb1b8)" d="M4.715 10.653l0.015 0.035c0.006-0.012 0.011-0.024 0.016-0.035s0.012-0.023 0.019-0.034l0.365-0.576c0.007-0.010 0.014-0.016 0.021-0.018 0.010-0.003 0.020-0.004 0.030-0.003h0.108v0.937h-0.128v-0.689c0-0.009 0-0.019 0-0.029s-0.001-0.022 0-0.032l-0.367 0.584c-0.005 0.009-0.012 0.016-0.022 0.021s-0.020 0.008-0.031 0.008h-0.021c-0.011 0-0.022-0.003-0.031-0.008s-0.017-0.013-0.021-0.021l-0.378-0.588c0 0.011 0 0.022 0 0.033s0 0.021 0 0.030v0.689h-0.124v-0.936h0.108c0.010-0.001 0.020 0.001 0.030 0.003 0.009 0.004 0.016 0.010 0.020 0.018l0.373 0.577c0.007 0.011 0.014 0.022 0.019 0.033z"></path>
<path fill="#afb1b8" style="fill: var(--color4, #afb1b8)" d="M6.088 10.606v0.351h-0.143v-0.936h0.318c0.060-0.001 0.12 0.006 0.178 0.020 0.046 0.011 0.089 0.031 0.126 0.058 0.032 0.025 0.056 0.057 0.071 0.092 0.017 0.038 0.025 0.079 0.024 0.12 0.001 0.041-0.008 0.082-0.026 0.12-0.017 0.036-0.044 0.068-0.077 0.094-0.037 0.028-0.080 0.049-0.126 0.062-0.056 0.015-0.114 0.023-0.172 0.022l-0.173-0.002zM6.088 10.506h0.173c0.038 0 0.075-0.004 0.111-0.014 0.030-0.009 0.057-0.022 0.080-0.040 0.021-0.017 0.038-0.038 0.049-0.062 0.012-0.025 0.018-0.052 0.017-0.079 0.002-0.026-0.003-0.052-0.014-0.076s-0.028-0.046-0.050-0.064c-0.055-0.037-0.123-0.055-0.192-0.050h-0.173v0.386z"></path>
<path fill="#afb1b8" style="fill: var(--color4, #afb1b8)" d="M8.007 10.959h-0.113c-0.011 0-0.022-0.003-0.031-0.009s-0.014-0.013-0.019-0.022l-0.097-0.226h-0.488l-0.101 0.226c-0.004 0.008-0.010 0.016-0.018 0.021-0.009 0.006-0.020 0.010-0.032 0.009h-0.113l0.428-0.938h0.149l0.434 0.938zM7.3 10.611h0.403l-0.17-0.382c-0.013-0.029-0.024-0.058-0.032-0.088l-0.016 0.049c-0.005 0.015-0.011 0.029-0.016 0.040l-0.169 0.381z"></path>
<path fill="#afb1b8" style="fill: var(--color4, #afb1b8)" d="M8.624 10.026c0.009 0.004 0.016 0.010 0.021 0.017l0.625 0.707c0-0.011 0-0.022 0-0.033s0-0.021 0-0.031v-0.664h0.128v0.937h-0.071c-0.010 0-0.020-0.002-0.029-0.006s-0.017-0.010-0.023-0.017l-0.624-0.706c0.001 0.011 0.001 0.022 0 0.032s0 0.020 0 0.029v0.668h-0.128v-0.937h0.076c0.009-0 0.018 0.001 0.026 0.004z"></path>
<path fill="#afb1b8" style="fill: var(--color4, #afb1b8)" d="M10.451 10.586v0.372h-0.143v-0.372l-0.395-0.565h0.128c0.011-0.001 0.022 0.002 0.031 0.008 0.008 0.006 0.014 0.013 0.019 0.021l0.247 0.364c0.010 0.016 0.019 0.030 0.026 0.043s0.013 0.027 0.018 0.040l0.019-0.040c0.007-0.015 0.015-0.029 0.024-0.043l0.244-0.367c0.005-0.007 0.011-0.014 0.019-0.020 0.008-0.006 0.019-0.010 0.031-0.009h0.129l-0.396 0.567z"></path>
<path fill="#afb1b8" style="fill: var(--color4, #afb1b8)" d="M4.644 8.448c0.062 0.007 0.125 0.012 0.189 0.017 0.964-0.374 1.779-0.987 2.343-1.762s0.854-1.677 0.832-2.594l-1.062-0.923c0.216 0.976 0.115 1.985-0.292 2.915s-1.103 1.742-2.011 2.347z"></path>
<path fill="#afb1b8" style="fill: var(--color4, #afb1b8)" d="M4.265 8.405l0.029 0.005c0.97-0.603 1.71-1.445 2.123-2.417s0.482-2.029 0.196-3.035l-1.512-1.314c0.612 1.080 0.858 2.289 0.71 3.486s-0.684 2.333-1.546 3.275z"></path>
<path fill="#afb1b8" style="fill: var(--color4, #afb1b8)" d="M9.394 5.193c-0.257 1.007-0.881 1.916-1.779 2.591-0.262 0.198-0.545 0.375-0.845 0.527 0.732-0.187 1.404-0.517 1.966-0.965s0.997-1.003 1.273-1.62l-0.613-0.532z"></path>
<path fill="#afb1b8" style="fill: var(--color4, #afb1b8)" d="M9.153 5.044l-0.873-0.759c-0.017 0.865-0.3 1.711-0.82 2.448s-1.258 1.341-2.137 1.748h0.004c0.196-0 0.392-0.010 0.586-0.030 0.822-0.291 1.548-0.755 2.113-1.349s0.952-1.301 1.127-2.057z"></path>
<path fill="#afb1b8" style="fill: var(--color4, #afb1b8)" d="M4.391 1.090l-1.042-0.906c-0.931 0.313-1.732 0.862-2.298 1.577s-0.87 1.561-0.873 2.429v0c0.003 0.959 0.375 1.889 1.055 2.643s1.631 1.29 2.701 1.523c0.956-1.011 1.515-2.261 1.597-3.568s-0.318-2.602-1.141-3.698z"></path>
<path fill="#afb1b8" style="fill: var(--color4, #afb1b8)" d="M11.56 4.905c-0.004-1.137-0.525-2.227-1.451-3.031s-2.18-1.257-3.489-1.261c-0.605-0.001-1.205 0.096-1.769 0.286l6.379 5.542c0.218-0.49 0.33-1.011 0.33-1.536z"></path>
</symbol>
<symbol id="icon-Client4b_logo" viewBox="0 0 22 11">
<path fill="#2196f3" style="fill: var(--color2, #2196f3)" d="M3.443 3.432h-0.001c-0.628 0-1.137 0.452-1.137 1.011v0.001c0 0.558 0.509 1.011 1.137 1.011h0.001c0.628 0 1.137-0.452 1.137-1.011v-0.001c0-0.558-0.509-1.011-1.137-1.011z"></path>
<path fill="#2196f3" style="fill: var(--color2, #2196f3)" d="M11.837 3.109c-0.002-0.775-0.349-1.518-0.966-2.067s-1.453-0.857-2.325-0.859v0c-0.873 0.001-1.709 0.31-2.326 0.858s-0.965 1.292-0.966 2.067v4.275c0 0 6.583-0.652 6.583-4.274v-0.001z"></path>
<path fill="#2196f3" style="fill: var(--color2, #2196f3)" d="M0 8.787c0.002 0.539 0.243 1.056 0.672 1.438s1.011 0.597 1.618 0.598c0.607-0.002 1.188-0.217 1.617-0.598s0.671-0.898 0.673-1.437v-2.975c0 0-4.58 0.454-4.58 2.974zM2.29 9.32c-0.119 0-0.235-0.031-0.333-0.090s-0.175-0.142-0.221-0.239c-0.045-0.097-0.057-0.205-0.034-0.308s0.080-0.198 0.164-0.273 0.191-0.125 0.307-0.146c0.116-0.021 0.237-0.010 0.346 0.030s0.203 0.109 0.269 0.196c0.066 0.088 0.101 0.191 0.101 0.296 0 0.070-0.015 0.14-0.045 0.205s-0.074 0.124-0.13 0.174c-0.056 0.050-0.122 0.089-0.195 0.116s-0.151 0.041-0.23 0.041v-0.002z"></path>
<path fill="#2196f3" style="fill: var(--color2, #2196f3)" d="M6.919 9.026h-0.442v0.457h-0.23v-1.117h0.727v0.186h-0.497v0.289h0.442v0.186zM8.025 8.949c0 0.11-0.019 0.206-0.058 0.289s-0.095 0.147-0.167 0.192c-0.072 0.045-0.155 0.068-0.249 0.068-0.093 0-0.175-0.022-0.248-0.067s-0.129-0.108-0.169-0.19c-0.040-0.083-0.060-0.178-0.061-0.285v-0.055c0-0.11 0.020-0.207 0.059-0.29s0.096-0.148 0.168-0.193c0.073-0.045 0.156-0.068 0.249-0.068s0.176 0.022 0.248 0.068c0.073 0.044 0.129 0.109 0.168 0.193s0.060 0.18 0.060 0.289v0.050zM7.792 8.899c0-0.117-0.021-0.206-0.063-0.267s-0.102-0.091-0.18-0.091c-0.077 0-0.137 0.030-0.179 0.091s-0.063 0.148-0.064 0.264v0.054c0 0.114 0.021 0.203 0.063 0.265s0.102 0.094 0.181 0.094c0.077 0 0.137-0.030 0.178-0.091s0.062-0.149 0.063-0.265v-0.054zM8.772 9.19c0-0.043-0.015-0.077-0.046-0.1s-0.086-0.048-0.166-0.074c-0.080-0.026-0.143-0.052-0.19-0.077-0.127-0.069-0.19-0.161-0.19-0.277 0-0.060 0.017-0.114 0.051-0.161s0.083-0.085 0.147-0.111c0.064-0.027 0.136-0.040 0.215-0.040s0.151 0.015 0.213 0.044c0.062 0.029 0.111 0.069 0.145 0.122s0.052 0.113 0.052 0.18h-0.23c0-0.051-0.016-0.091-0.048-0.119s-0.077-0.043-0.136-0.043c-0.056 0-0.1 0.012-0.131 0.036s-0.047 0.055-0.047 0.094c0 0.036 0.018 0.067 0.054 0.091s0.091 0.048 0.162 0.069c0.131 0.039 0.226 0.088 0.286 0.147s0.090 0.131 0.090 0.218c0 0.097-0.037 0.173-0.11 0.228s-0.172 0.082-0.295 0.082c-0.086 0-0.164-0.016-0.235-0.047s-0.125-0.075-0.162-0.13c-0.037-0.055-0.055-0.118-0.055-0.19h0.231c0 0.123 0.074 0.185 0.221 0.185 0.055 0 0.097-0.011 0.128-0.033s0.046-0.054 0.046-0.094zM10 8.552h-0.342v0.931h-0.23v-0.931h-0.338v-0.186h0.91v0.186zM10.805 8.999h-0.442v0.299h0.519v0.185h-0.749v-1.117h0.747v0.186h-0.517v0.266h0.442v0.18zM11.43 9.074h-0.183v0.409h-0.23v-1.117h0.415c0.132 0 0.234 0.029 0.305 0.088s0.107 0.142 0.107 0.249c0 0.076-0.017 0.14-0.050 0.191s-0.083 0.091-0.15 0.121l0.242 0.457v0.011h-0.247l-0.209-0.409zM11.246 8.887h0.186c0.058 0 0.103-0.015 0.134-0.044s0.048-0.070 0.048-0.122c0-0.053-0.015-0.094-0.045-0.124s-0.075-0.045-0.137-0.045h-0.185v0.335zM12.641 9.089v0.394h-0.23v-1.117h0.436c0.084 0 0.158 0.015 0.221 0.046s0.113 0.074 0.147 0.131c0.034 0.056 0.051 0.12 0.051 0.193 0 0.109-0.038 0.196-0.113 0.259s-0.178 0.094-0.311 0.094h-0.202zM12.641 8.903h0.206c0.061 0 0.107-0.014 0.139-0.043s0.048-0.070 0.048-0.123c0-0.055-0.016-0.099-0.048-0.133s-0.077-0.051-0.134-0.052h-0.211v0.351zM14.098 8.999h-0.442v0.299h0.519v0.185h-0.749v-1.117h0.747v0.186h-0.517v0.266h0.442v0.18zM15.166 8.552h-0.342v0.931h-0.23v-0.931h-0.338v-0.186h0.91v0.186zM15.97 8.999h-0.442v0.299h0.519v0.185h-0.749v-1.117h0.747v0.186h-0.517v0.266h0.442v0.18zM16.595 9.074h-0.183v0.409h-0.23v-1.117h0.415c0.132 0 0.234 0.029 0.305 0.088s0.107 0.142 0.107 0.249c0 0.076-0.017 0.14-0.050 0.191s-0.083 0.091-0.15 0.121l0.242 0.457v0.011h-0.247l-0.209-0.409zM16.412 8.887h0.186c0.058 0 0.103-0.015 0.134-0.044s0.048-0.070 0.048-0.122c0-0.053-0.015-0.094-0.045-0.124s-0.075-0.045-0.137-0.045h-0.185v0.335zM17.765 9.19c0-0.043-0.015-0.077-0.046-0.1s-0.086-0.048-0.166-0.074c-0.080-0.026-0.143-0.052-0.19-0.077-0.127-0.069-0.19-0.161-0.19-0.277 0-0.060 0.017-0.114 0.051-0.161s0.083-0.085 0.147-0.111c0.064-0.027 0.136-0.040 0.215-0.040s0.151 0.015 0.213 0.044c0.062 0.029 0.111 0.069 0.145 0.122s0.052 0.113 0.052 0.18h-0.23c0-0.051-0.016-0.091-0.048-0.119s-0.077-0.043-0.136-0.043c-0.056 0-0.1 0.012-0.131 0.036s-0.047 0.055-0.047 0.094c0 0.036 0.018 0.067 0.054 0.091s0.091 0.048 0.162 0.069c0.131 0.039 0.226 0.088 0.286 0.147s0.090 0.131 0.090 0.218c0 0.097-0.037 0.173-0.11 0.228s-0.172 0.082-0.295 0.082c-0.086 0-0.164-0.016-0.235-0.047s-0.125-0.075-0.162-0.13c-0.037-0.055-0.055-0.118-0.055-0.19h0.231c0 0.123 0.074 0.185 0.221 0.185 0.055 0 0.097-0.011 0.128-0.033s0.046-0.054 0.046-0.094z"></path>
</symbol>
<symbol id="icon-Client4_logo" viewBox="0 0 22 11">
<path fill="#afb1b8" style="fill: var(--color4, #afb1b8)" d="M3.443 3.432h-0.001c-0.628 0-1.137 0.452-1.137 1.011v0.001c0 0.558 0.509 1.011 1.137 1.011h0.001c0.628 0 1.137-0.452 1.137-1.011v-0.001c0-0.558-0.509-1.011-1.137-1.011z"></path>
<path fill="#afb1b8" style="fill: var(--color4, #afb1b8)" d="M11.837 3.109c-0.002-0.775-0.349-1.518-0.966-2.067s-1.453-0.857-2.325-0.859v0c-0.873 0.001-1.709 0.31-2.326 0.858s-0.965 1.292-0.966 2.067v4.275c0 0 6.583-0.652 6.583-4.274v-0.001z"></path>
<path fill="#afb1b8" style="fill: var(--color4, #afb1b8)" d="M0 8.787c0.002 0.539 0.243 1.056 0.672 1.438s1.011 0.597 1.618 0.598c0.607-0.002 1.188-0.217 1.617-0.598s0.671-0.898 0.673-1.437v-2.975c0 0-4.58 0.454-4.58 2.974zM2.29 9.32c-0.119 0-0.235-0.031-0.333-0.090s-0.175-0.142-0.221-0.239c-0.045-0.097-0.057-0.205-0.034-0.308s0.080-0.198 0.164-0.273 0.191-0.125 0.307-0.146c0.116-0.021 0.237-0.010 0.346 0.030s0.203 0.109 0.269 0.196c0.066 0.088 0.101 0.191 0.101 0.296 0 0.070-0.015 0.14-0.045 0.205s-0.074 0.124-0.13 0.174c-0.056 0.050-0.122 0.089-0.195 0.116s-0.151 0.041-0.23 0.041v-0.002z"></path>
<path fill="#afb1b8" style="fill: var(--color4, #afb1b8)" d="M6.919 9.026h-0.442v0.457h-0.23v-1.117h0.727v0.186h-0.497v0.289h0.442v0.186zM8.025 8.949c0 0.11-0.019 0.206-0.058 0.289s-0.095 0.147-0.167 0.192c-0.072 0.045-0.155 0.068-0.249 0.068-0.093 0-0.175-0.022-0.248-0.067s-0.129-0.108-0.169-0.19c-0.040-0.083-0.060-0.178-0.061-0.285v-0.055c0-0.11 0.020-0.207 0.059-0.29s0.096-0.148 0.168-0.193c0.073-0.045 0.156-0.068 0.249-0.068s0.176 0.022 0.248 0.068c0.073 0.044 0.129 0.109 0.168 0.193s0.060 0.18 0.060 0.289v0.050zM7.792 8.899c0-0.117-0.021-0.206-0.063-0.267s-0.102-0.091-0.18-0.091c-0.077 0-0.137 0.030-0.179 0.091s-0.063 0.148-0.064 0.264v0.054c0 0.114 0.021 0.203 0.063 0.265s0.102 0.094 0.181 0.094c0.077 0 0.137-0.030 0.178-0.091s0.062-0.149 0.063-0.265v-0.054zM8.772 9.19c0-0.043-0.015-0.077-0.046-0.1s-0.086-0.048-0.166-0.074c-0.080-0.026-0.143-0.052-0.19-0.077-0.127-0.069-0.19-0.161-0.19-0.277 0-0.060 0.017-0.114 0.051-0.161s0.083-0.085 0.147-0.111c0.064-0.027 0.136-0.040 0.215-0.040s0.151 0.015 0.213 0.044c0.062 0.029 0.111 0.069 0.145 0.122s0.052 0.113 0.052 0.18h-0.23c0-0.051-0.016-0.091-0.048-0.119s-0.077-0.043-0.136-0.043c-0.056 0-0.1 0.012-0.131 0.036s-0.047 0.055-0.047 0.094c0 0.036 0.018 0.067 0.054 0.091s0.091 0.048 0.162 0.069c0.131 0.039 0.226 0.088 0.286 0.147s0.090 0.131 0.090 0.218c0 0.097-0.037 0.173-0.11 0.228s-0.172 0.082-0.295 0.082c-0.086 0-0.164-0.016-0.235-0.047s-0.125-0.075-0.162-0.13c-0.037-0.055-0.055-0.118-0.055-0.19h0.231c0 0.123 0.074 0.185 0.221 0.185 0.055 0 0.097-0.011 0.128-0.033s0.046-0.054 0.046-0.094zM10 8.552h-0.342v0.931h-0.23v-0.931h-0.338v-0.186h0.91v0.186zM10.805 8.999h-0.442v0.299h0.519v0.185h-0.749v-1.117h0.747v0.186h-0.517v0.266h0.442v0.18zM11.43 9.074h-0.183v0.409h-0.23v-1.117h0.415c0.132 0 0.234 0.029 0.305 0.088s0.107 0.142 0.107 0.249c0 0.076-0.017 0.14-0.050 0.191s-0.083 0.091-0.15 0.121l0.242 0.457v0.011h-0.247l-0.209-0.409zM11.246 8.887h0.186c0.058 0 0.103-0.015 0.134-0.044s0.048-0.070 0.048-0.122c0-0.053-0.015-0.094-0.045-0.124s-0.075-0.045-0.137-0.045h-0.185v0.335zM12.641 9.089v0.394h-0.23v-1.117h0.436c0.084 0 0.158 0.015 0.221 0.046s0.113 0.074 0.147 0.131c0.034 0.056 0.051 0.12 0.051 0.193 0 0.109-0.038 0.196-0.113 0.259s-0.178 0.094-0.311 0.094h-0.202zM12.641 8.903h0.206c0.061 0 0.107-0.014 0.139-0.043s0.048-0.070 0.048-0.123c0-0.055-0.016-0.099-0.048-0.133s-0.077-0.051-0.134-0.052h-0.211v0.351zM14.098 8.999h-0.442v0.299h0.519v0.185h-0.749v-1.117h0.747v0.186h-0.517v0.266h0.442v0.18zM15.166 8.552h-0.342v0.931h-0.23v-0.931h-0.338v-0.186h0.91v0.186zM15.97 8.999h-0.442v0.299h0.519v0.185h-0.749v-1.117h0.747v0.186h-0.517v0.266h0.442v0.18zM16.595 9.074h-0.183v0.409h-0.23v-1.117h0.415c0.132 0 0.234 0.029 0.305 0.088s0.107 0.142 0.107 0.249c0 0.076-0.017 0.14-0.050 0.191s-0.083 0.091-0.15 0.121l0.242 0.457v0.011h-0.247l-0.209-0.409zM16.412 8.887h0.186c0.058 0 0.103-0.015 0.134-0.044s0.048-0.070 0.048-0.122c0-0.053-0.015-0.094-0.045-0.124s-0.075-0.045-0.137-0.045h-0.185v0.335zM17.765 9.19c0-0.043-0.015-0.077-0.046-0.1s-0.086-0.048-0.166-0.074c-0.080-0.026-0.143-0.052-0.19-0.077-0.127-0.069-0.19-0.161-0.19-0.277 0-0.060 0.017-0.114 0.051-0.161s0.083-0.085 0.147-0.111c0.064-0.027 0.136-0.040 0.215-0.040s0.151 0.015 0.213 0.044c0.062 0.029 0.111 0.069 0.145 0.122s0.052 0.113 0.052 0.18h-0.23c0-0.051-0.016-0.091-0.048-0.119s-0.077-0.043-0.136-0.043c-0.056 0-0.1 0.012-0.131 0.036s-0.047 0.055-0.047 0.094c0 0.036 0.018 0.067 0.054 0.091s0.091 0.048 0.162 0.069c0.131 0.039 0.226 0.088 0.286 0.147s0.090 0.131 0.090 0.218c0 0.097-0.037 0.173-0.11 0.228s-0.172 0.082-0.295 0.082c-0.086 0-0.164-0.016-0.235-0.047s-0.125-0.075-0.162-0.13c-0.037-0.055-0.055-0.118-0.055-0.19h0.231c0 0.123 0.074 0.185 0.221 0.185 0.055 0 0.097-0.011 0.128-0.033s0.046-0.054 0.046-0.094z"></path>
</symbol>
<symbol id="icon-Client5b_logo" viewBox="0 0 15 11">
<path fill="#2196f3" style="fill: var(--color2, #2196f3)" d="M1.113 9.066c0.057 0.065 0.087 0.146 0.086 0.229 0.003 0.054-0.008 0.108-0.031 0.158s-0.058 0.095-0.102 0.131c-0.111 0.077-0.248 0.114-0.387 0.105h-0.68v-1.449h0.666c0.131-0.008 0.262 0.026 0.369 0.096 0.043 0.033 0.077 0.075 0.099 0.122s0.033 0.098 0.030 0.15c0.004 0.080-0.024 0.159-0.077 0.222-0.052 0.058-0.123 0.097-0.203 0.113 0.090 0.015 0.172 0.059 0.23 0.124zM0.316 8.847h0.285c0.065 0.004 0.129-0.013 0.181-0.048 0.021-0.018 0.038-0.040 0.049-0.064s0.015-0.051 0.013-0.077c0.002-0.026-0.002-0.052-0.013-0.077s-0.027-0.047-0.048-0.065c-0.054-0.036-0.12-0.054-0.186-0.049h-0.28v0.38zM0.809 9.403c0.023-0.018 0.041-0.041 0.052-0.066s0.017-0.053 0.015-0.081c0.002-0.028-0.004-0.056-0.015-0.082s-0.030-0.049-0.053-0.067c-0.056-0.038-0.124-0.056-0.193-0.052h-0.298v0.399h0.302c0.068 0.004 0.135-0.014 0.191-0.050z"></path>
<path fill="#2196f3" style="fill: var(--color2, #2196f3)" d="M2.474 9.689l-0.37-0.566h-0.139v0.566h-0.319v-1.449h0.603c0.152-0.010 0.302 0.034 0.42 0.123 0.084 0.079 0.135 0.182 0.143 0.292s-0.027 0.219-0.099 0.307c-0.074 0.078-0.176 0.13-0.288 0.147l0.394 0.579h-0.346zM1.965 8.925h0.261c0.181 0 0.271-0.073 0.271-0.219 0.002-0.030-0.003-0.060-0.015-0.088s-0.029-0.054-0.052-0.075c-0.057-0.044-0.131-0.065-0.205-0.059h-0.264l0.003 0.441z"></path>
<path fill="#2196f3" style="fill: var(--color2, #2196f3)" d="M4.215 9.397h-0.635l-0.112 0.292h-0.334l0.583-1.433h0.361l0.581 1.433h-0.334l-0.11-0.292zM4.13 9.178l-0.232-0.612-0.232 0.612h0.464z"></path>
<path fill="#2196f3" style="fill: var(--color2, #2196f3)" d="M6.395 9.689h-0.316l-0.709-0.985v0.985h-0.315v-1.449h0.315l0.709 0.991v-0.991h0.316v1.449z"></path>
<path fill="#2196f3" style="fill: var(--color2, #2196f3)" d="M8.199 9.342c-0.065 0.109-0.165 0.198-0.286 0.256-0.138 0.064-0.29 0.095-0.445 0.091h-0.563v-1.449h0.563c0.154-0.004 0.306 0.027 0.445 0.089 0.121 0.056 0.221 0.144 0.286 0.253 0.065 0.118 0.099 0.248 0.099 0.38s-0.034 0.262-0.099 0.38zM7.837 9.307c0.090-0.096 0.14-0.219 0.14-0.346s-0.050-0.25-0.14-0.346c-0.109-0.087-0.251-0.131-0.396-0.123h-0.22v0.938h0.22c0.145 0.008 0.287-0.036 0.396-0.123z"></path>
<path fill="#2196f3" style="fill: var(--color2, #2196f3)" d="M4.413 0.179c0 0 4.081 1.411 3.995 3.452v3.453c0 0-4.078-1.412-3.993-3.453l-0.002-3.452z"></path>
<path fill="#2196f3" style="fill: var(--color2, #2196f3)" d="M12.044 6.277c0.771-0.486 1.662-0.787 2.593-0.875v-1.081c-1.072 0.378-1.982 1.065-2.593 1.956z"></path>
<path fill="#2196f3" style="fill: var(--color2, #2196f3)" d="M11.581 6.602c0.631-1.163 1.725-2.061 3.056-2.508v-3.115c0 0-5.812 2.010-5.69 4.917v4.916c0 0 0.259-0.090 0.666-0.258 0-0.157 0-0.316 0.019-0.475 0.12-1.35 0.821-2.6 1.948-3.477z"></path>
<path fill="#2196f3" style="fill: var(--color2, #2196f3)" d="M11.028 8.429c0.031-0.341 0.099-0.678 0.203-1.007-0.702 0.757-1.127 1.697-1.215 2.686-0.009 0.093-0.013 0.187-0.015 0.283 0.33-0.145 0.714-0.326 1.118-0.539-0.103-0.468-0.133-0.948-0.090-1.424z"></path>
<path fill="#2196f3" style="fill: var(--color2, #2196f3)" d="M11.259 8.446c-0.039 0.431-0.015 0.864 0.072 1.289 1.588-0.87 3.372-2.214 3.304-3.839v-0.142c-1.135 0.116-2.196 0.57-3.021 1.293-0.193 0.448-0.313 0.919-0.354 1.399z"></path>
</symbol>
<symbol id="icon-Client5_logo" viewBox="0 0 15 11">
<path fill="#afb1b8" style="fill: var(--color4, #afb1b8)" d="M1.113 9.066c0.057 0.065 0.087 0.146 0.086 0.229 0.003 0.054-0.008 0.108-0.031 0.158s-0.058 0.095-0.102 0.131c-0.111 0.077-0.248 0.114-0.387 0.105h-0.68v-1.449h0.666c0.131-0.008 0.262 0.026 0.369 0.096 0.043 0.033 0.077 0.075 0.099 0.122s0.033 0.098 0.030 0.15c0.004 0.080-0.024 0.159-0.077 0.222-0.052 0.058-0.123 0.097-0.203 0.113 0.090 0.015 0.172 0.059 0.23 0.124zM0.316 8.847h0.285c0.065 0.004 0.129-0.013 0.181-0.048 0.021-0.018 0.038-0.040 0.049-0.064s0.015-0.051 0.013-0.077c0.002-0.026-0.002-0.052-0.013-0.077s-0.027-0.047-0.048-0.065c-0.054-0.036-0.12-0.054-0.186-0.049h-0.28v0.38zM0.809 9.403c0.023-0.018 0.041-0.041 0.052-0.066s0.017-0.053 0.015-0.081c0.002-0.028-0.004-0.056-0.015-0.082s-0.030-0.049-0.053-0.067c-0.056-0.038-0.124-0.056-0.193-0.052h-0.298v0.399h0.302c0.068 0.004 0.135-0.014 0.191-0.050z"></path>
<path fill="#afb1b8" style="fill: var(--color4, #afb1b8)" d="M2.474 9.689l-0.37-0.566h-0.139v0.566h-0.319v-1.449h0.603c0.152-0.010 0.302 0.034 0.42 0.123 0.084 0.079 0.135 0.182 0.143 0.292s-0.027 0.219-0.099 0.307c-0.074 0.078-0.176 0.13-0.288 0.147l0.394 0.579h-0.346zM1.965 8.925h0.261c0.181 0 0.271-0.073 0.271-0.219 0.002-0.030-0.003-0.060-0.015-0.088s-0.029-0.054-0.052-0.075c-0.057-0.044-0.131-0.065-0.205-0.059h-0.264l0.003 0.441z"></path>
<path fill="#afb1b8" style="fill: var(--color4, #afb1b8)" d="M4.215 9.397h-0.635l-0.112 0.292h-0.334l0.583-1.433h0.361l0.581 1.433h-0.334l-0.11-0.292zM4.13 9.178l-0.232-0.612-0.232 0.612h0.464z"></path>
<path fill="#afb1b8" style="fill: var(--color4, #afb1b8)" d="M6.395 9.689h-0.316l-0.709-0.985v0.985h-0.315v-1.449h0.315l0.709 0.991v-0.991h0.316v1.449z"></path>
<path fill="#afb1b8" style="fill: var(--color4, #afb1b8)" d="M8.199 9.342c-0.065 0.109-0.165 0.198-0.286 0.256-0.138 0.064-0.29 0.095-0.445 0.091h-0.563v-1.449h0.563c0.154-0.004 0.306 0.027 0.445 0.089 0.121 0.056 0.221 0.144 0.286 0.253 0.065 0.118 0.099 0.248 0.099 0.38s-0.034 0.262-0.099 0.38zM7.837 9.307c0.090-0.096 0.14-0.219 0.14-0.346s-0.050-0.25-0.14-0.346c-0.109-0.087-0.251-0.131-0.396-0.123h-0.22v0.938h0.22c0.145 0.008 0.287-0.036 0.396-0.123z"></path>
<path fill="#afb1b8" style="fill: var(--color4, #afb1b8)" d="M4.413 0.179c0 0 4.081 1.411 3.995 3.452v3.453c0 0-4.078-1.412-3.993-3.453l-0.002-3.452z"></path>
<path fill="#afb1b8" style="fill: var(--color4, #afb1b8)" d="M12.044 6.277c0.771-0.486 1.662-0.787 2.593-0.875v-1.081c-1.072 0.378-1.982 1.065-2.593 1.956z"></path>
<path fill="#afb1b8" style="fill: var(--color4, #afb1b8)" d="M11.581 6.602c0.631-1.163 1.725-2.061 3.056-2.508v-3.115c0 0-5.812 2.010-5.69 4.917v4.916c0 0 0.259-0.090 0.666-0.258 0-0.157 0-0.316 0.019-0.475 0.12-1.35 0.821-2.6 1.948-3.477z"></path>
<path fill="#afb1b8" style="fill: var(--color4, #afb1b8)" d="M11.028 8.429c0.031-0.341 0.099-0.678 0.203-1.007-0.702 0.757-1.127 1.697-1.215 2.686-0.009 0.093-0.013 0.187-0.015 0.283 0.33-0.145 0.714-0.326 1.118-0.539-0.103-0.468-0.133-0.948-0.090-1.424z"></path>
<path fill="#afb1b8" style="fill: var(--color4, #afb1b8)" d="M11.259 8.446c-0.039 0.431-0.015 0.864 0.072 1.289 1.588-0.87 3.372-2.214 3.304-3.839v-0.142c-1.135 0.116-2.196 0.57-3.021 1.293-0.193 0.448-0.313 0.919-0.354 1.399z"></path>
</symbol>
<symbol id="icon-Client6b_logo" viewBox="0 0 23 11">
<path fill="#2196f3" style="fill: var(--color2, #2196f3)" d="M11.593 5.233c-0.108-0.144-0.16-0.315-0.148-0.486v-0.705c0-0.216 0.049-0.38 0.147-0.493s0.266-0.168 0.505-0.168c0.224 0 0.383 0.048 0.478 0.143 0.103 0.122 0.153 0.271 0.141 0.422v0.166h-0.401v-0.168c0.001-0.055-0.002-0.11-0.012-0.164-0.006-0.037-0.026-0.072-0.057-0.098-0.041-0.028-0.093-0.042-0.145-0.038-0.055-0.004-0.109 0.011-0.153 0.040-0.035 0.029-0.058 0.066-0.066 0.108-0.012 0.058-0.017 0.116-0.016 0.174v0.855c-0.006 0.083 0.011 0.165 0.051 0.24 0.020 0.025 0.048 0.046 0.080 0.058s0.068 0.017 0.103 0.013c0.051 0.004 0.102-0.010 0.142-0.039 0.033-0.028 0.054-0.065 0.060-0.104 0.009-0.057 0.014-0.114 0.012-0.171v-0.174h0.401v0.158c0.011 0.157-0.037 0.313-0.139 0.443-0.092 0.105-0.249 0.157-0.48 0.157s-0.405-0.056-0.504-0.172z"></path>
<path fill="#2196f3" style="fill: var(--color2, #2196f3)" d="M13.263 5.24c-0.101-0.11-0.152-0.27-0.152-0.481v-0.741c0-0.209 0.051-0.368 0.152-0.475s0.271-0.161 0.508-0.161c0.236 0 0.404 0.054 0.506 0.161s0.153 0.266 0.153 0.475v0.741c0 0.209-0.051 0.37-0.154 0.48s-0.271 0.166-0.504 0.166c-0.233 0-0.406-0.056-0.508-0.165zM13.958 5.062c0.036-0.069 0.053-0.144 0.048-0.219v-0.908c0.005-0.074-0.012-0.148-0.047-0.215-0.020-0.026-0.049-0.046-0.082-0.059s-0.070-0.017-0.106-0.013c-0.036-0.004-0.073 0-0.106 0.013s-0.062 0.033-0.082 0.059c-0.037 0.067-0.053 0.141-0.048 0.215v0.912c-0.005 0.075 0.011 0.151 0.048 0.219 0.023 0.023 0.052 0.042 0.085 0.054s0.068 0.019 0.103 0.019c0.036 0 0.071-0.007 0.103-0.019s0.061-0.031 0.085-0.054v-0.004z"></path>
<path fill="#2196f3" style="fill: var(--color2, #2196f3)" d="M14.912 3.404h0.432l0.325 1.368 0.332-1.368h0.42l0.042 1.974h-0.311l-0.033-1.372-0.321 1.372h-0.249l-0.332-1.377-0.031 1.377h-0.314l0.039-1.974z"></path>
<path fill="#2196f3" style="fill: var(--color2, #2196f3)" d="M16.947 3.404h0.673c0.388 0 0.581 0.187 0.581 0.561 0 0.358-0.204 0.537-0.612 0.536h-0.229v0.877h-0.415l0.002-1.974zM17.522 4.247c0.041 0.005 0.083 0.001 0.122-0.010s0.076-0.029 0.106-0.053c0.048-0.067 0.069-0.145 0.060-0.223 0.002-0.060-0.005-0.12-0.020-0.179-0.006-0.020-0.016-0.038-0.031-0.054s-0.032-0.030-0.052-0.040c-0.058-0.024-0.121-0.035-0.185-0.032h-0.161v0.59h0.161z"></path>
<path fill="#2196f3" style="fill: var(--color2, #2196f3)" d="M18.8 3.404h0.446l0.458 1.974h-0.387l-0.091-0.455h-0.398l-0.093 0.455h-0.393l0.458-1.974zM19.181 4.694l-0.155-0.829-0.155 0.829h0.311z"></path>
<path fill="#2196f3" style="fill: var(--color2, #2196f3)" d="M20.073 3.404h0.291l0.556 1.126v-1.126h0.345v1.974h-0.277l-0.56-1.176v1.176h-0.356l0.001-1.974z"></path>
<path fill="#2196f3" style="fill: var(--color2, #2196f3)" d="M22.072 4.625l-0.463-1.219h0.389l0.282 0.783 0.265-0.783h0.381l-0.457 1.219v0.753h-0.399v-0.753z"></path>
<path fill="#2196f3" style="fill: var(--color2, #2196f3)" d="M12.234 6.241v0.103h-0.339v0.802h-0.142v-0.802h-0.34v-0.103h0.821z"></path>
<path fill="#2196f3" style="fill: var(--color2, #2196f3)" d="M13.296 7.147h-0.11c-0.011 0.001-0.022-0.002-0.031-0.009s-0.015-0.012-0.018-0.021l-0.098-0.215h-0.47l-0.098 0.215c-0.003 0.009-0.008 0.017-0.015 0.024-0.009 0.006-0.020 0.009-0.031 0.009h-0.11l0.415-0.905h0.145l0.42 0.902zM12.608 6.81h0.392l-0.166-0.368c-0.012-0.028-0.023-0.056-0.031-0.085-0.006 0.017-0.011 0.034-0.016 0.048l-0.015 0.038-0.164 0.368z"></path>
<path fill="#2196f3" style="fill: var(--color2, #2196f3)" d="M14.012 7.058c0.026 0.001 0.052 0.001 0.078 0 0.022-0.002 0.045-0.006 0.066-0.011 0.020-0.004 0.040-0.010 0.060-0.016 0.018-0.006 0.037-0.014 0.056-0.022v-0.204h-0.166c-0.004 0-0.008-0-0.012-0.002s-0.007-0.003-0.010-0.006c-0.003-0.002-0.005-0.005-0.006-0.007s-0.002-0.006-0.002-0.009v-0.070h0.322v0.347c-0.026 0.016-0.054 0.031-0.083 0.043s-0.060 0.023-0.092 0.031c-0.034 0.009-0.069 0.015-0.104 0.019-0.040 0.004-0.081 0.006-0.121 0.006-0.072 0.001-0.143-0.011-0.209-0.034-0.062-0.022-0.119-0.054-0.166-0.095-0.046-0.041-0.083-0.090-0.107-0.143-0.026-0.060-0.039-0.124-0.038-0.188-0.001-0.065 0.012-0.129 0.037-0.189 0.024-0.054 0.060-0.102 0.107-0.143s0.104-0.073 0.166-0.094c0.071-0.023 0.147-0.035 0.223-0.034 0.039-0 0.077 0.003 0.115 0.008 0.034 0.005 0.067 0.012 0.099 0.023 0.029 0.009 0.057 0.021 0.083 0.036s0.050 0.030 0.072 0.047l-0.040 0.056c-0.003 0.005-0.008 0.009-0.013 0.012s-0.012 0.005-0.019 0.005c-0.009-0-0.018-0.003-0.026-0.007-0.012-0.006-0.026-0.013-0.041-0.022-0.018-0.010-0.036-0.018-0.056-0.024-0.025-0.009-0.050-0.015-0.076-0.020-0.035-0.006-0.070-0.008-0.105-0.008-0.055-0.001-0.109 0.008-0.16 0.025-0.046 0.016-0.088 0.040-0.122 0.072-0.034 0.033-0.061 0.071-0.077 0.113-0.037 0.098-0.037 0.204 0 0.302 0.018 0.043 0.046 0.081 0.083 0.114 0.034 0.031 0.075 0.056 0.121 0.072 0.053 0.016 0.109 0.022 0.164 0.018z"></path>
<path fill="#2196f3" style="fill: var(--color2, #2196f3)" d="M15.336 7.043h0.453v0.103h-0.592v-0.905h0.142l-0.003 0.802z"></path>
<path fill="#2196f3" style="fill: var(--color2, #2196f3)" d="M16.261 7.147h-0.142v-0.905h0.142v0.905z"></path>
<path fill="#2196f3" style="fill: var(--color2, #2196f3)" d="M16.789 6.245c0.008 0.004 0.016 0.010 0.022 0.016l0.607 0.683c-0.001-0.011-0.001-0.022 0-0.032s0-0.020 0-0.029v-0.645h0.124v0.909h-0.071c-0.011 0.001-0.021-0.001-0.031-0.005s-0.016-0.010-0.022-0.017l-0.606-0.682c0 0.011 0 0.021 0 0.031s0 0.019 0 0.028v0.645h-0.119v-0.906h0.074c0.008 0 0.016 0.001 0.023 0.004z"></path>
<path fill="#2196f3" style="fill: var(--color2, #2196f3)" d="M18.587 6.241v0.1h-0.503v0.299h0.408v0.096h-0.408v0.309h0.503v0.1h-0.649v-0.903h0.649z"></path>
<path fill="#2196f3" style="fill: var(--color2, #2196f3)" d="M3.706 0.649l6.305 1.546v5.416l-6.305-1.545v-5.417zM3.302 0.187v6.142l7.113 1.744v-6.141l-7.113-1.745z"></path>
<path fill="#2196f3" style="fill: var(--color2, #2196f3)" d="M7.114 10.925l-7.114-1.746v-6.141l7.114 1.745v6.142z"></path>
<path fill="#2196f3" style="fill: var(--color2, #2196f3)" d="M3.42 0.58l6.223 1.526-2.647 2.286-6.224-1.527 2.647-2.285zM3.302 0.187l-3.302 2.85 7.114 1.745 3.301-2.85-7.113-1.745z"></path>
<path fill="#2196f3" style="fill: var(--color2, #2196f3)" d="M7.515 10.579l2.901-2.505-2.901-0.712v3.217z"></path>
</symbol>
<symbol id="icon-Client6_logo" viewBox="0 0 23 11">
<path fill="#afb1b8" style="fill: var(--color4, #afb1b8)" d="M11.593 5.233c-0.108-0.144-0.16-0.315-0.148-0.486v-0.705c0-0.216 0.049-0.38 0.147-0.493s0.266-0.168 0.505-0.168c0.224 0 0.383 0.048 0.478 0.143 0.103 0.122 0.153 0.271 0.141 0.422v0.166h-0.401v-0.168c0.001-0.055-0.002-0.11-0.012-0.164-0.006-0.037-0.026-0.072-0.057-0.098-0.041-0.028-0.093-0.042-0.145-0.038-0.055-0.004-0.109 0.011-0.153 0.040-0.035 0.029-0.058 0.066-0.066 0.108-0.012 0.058-0.017 0.116-0.016 0.174v0.855c-0.006 0.083 0.011 0.165 0.051 0.24 0.020 0.025 0.048 0.046 0.080 0.058s0.068 0.017 0.103 0.013c0.051 0.004 0.102-0.010 0.142-0.039 0.033-0.028 0.054-0.065 0.060-0.104 0.009-0.057 0.014-0.114 0.012-0.171v-0.174h0.401v0.158c0.011 0.157-0.037 0.313-0.139 0.443-0.092 0.105-0.249 0.157-0.48 0.157s-0.405-0.056-0.504-0.172z"></path>
<path fill="#afb1b8" style="fill: var(--color4, #afb1b8)" d="M13.263 5.24c-0.101-0.11-0.152-0.27-0.152-0.481v-0.741c0-0.209 0.051-0.368 0.152-0.475s0.271-0.161 0.508-0.161c0.236 0 0.404 0.054 0.506 0.161s0.153 0.266 0.153 0.475v0.741c0 0.209-0.051 0.37-0.154 0.48s-0.271 0.166-0.504 0.166c-0.233 0-0.406-0.056-0.508-0.165zM13.958 5.062c0.036-0.069 0.053-0.144 0.048-0.219v-0.908c0.005-0.074-0.012-0.148-0.047-0.215-0.020-0.026-0.049-0.046-0.082-0.059s-0.070-0.017-0.106-0.013c-0.036-0.004-0.073 0-0.106 0.013s-0.062 0.033-0.082 0.059c-0.037 0.067-0.053 0.141-0.048 0.215v0.912c-0.005 0.075 0.011 0.151 0.048 0.219 0.023 0.023 0.052 0.042 0.085 0.054s0.068 0.019 0.103 0.019c0.036 0 0.071-0.007 0.103-0.019s0.061-0.031 0.085-0.054v-0.004z"></path>
<path fill="#afb1b8" style="fill: var(--color4, #afb1b8)" d="M14.912 3.404h0.432l0.325 1.368 0.332-1.368h0.42l0.042 1.974h-0.311l-0.033-1.372-0.321 1.372h-0.249l-0.332-1.377-0.031 1.377h-0.314l0.039-1.974z"></path>
<path fill="#afb1b8" style="fill: var(--color4, #afb1b8)" d="M16.947 3.404h0.673c0.388 0 0.581 0.187 0.581 0.561 0 0.358-0.204 0.537-0.612 0.536h-0.229v0.877h-0.415l0.002-1.974zM17.522 4.247c0.041 0.005 0.083 0.001 0.122-0.010s0.076-0.029 0.106-0.053c0.048-0.067 0.069-0.145 0.060-0.223 0.002-0.060-0.005-0.12-0.020-0.179-0.006-0.020-0.016-0.038-0.031-0.054s-0.032-0.030-0.052-0.040c-0.058-0.024-0.121-0.035-0.185-0.032h-0.161v0.59h0.161z"></path>
<path fill="#afb1b8" style="fill: var(--color4, #afb1b8)" d="M18.8 3.404h0.446l0.458 1.974h-0.387l-0.091-0.455h-0.398l-0.093 0.455h-0.393l0.458-1.974zM19.181 4.694l-0.155-0.829-0.155 0.829h0.311z"></path>
<path fill="#afb1b8" style="fill: var(--color4, #afb1b8)" d="M20.073 3.404h0.291l0.556 1.126v-1.126h0.345v1.974h-0.277l-0.56-1.176v1.176h-0.356l0.001-1.974z"></path>
<path fill="#afb1b8" style="fill: var(--color4, #afb1b8)" d="M22.072 4.625l-0.463-1.219h0.389l0.282 0.783 0.265-0.783h0.381l-0.457 1.219v0.753h-0.399v-0.753z"></path>
<path fill="#afb1b8" style="fill: var(--color4, #afb1b8)" d="M12.234 6.241v0.103h-0.339v0.802h-0.142v-0.802h-0.34v-0.103h0.821z"></path>
<path fill="#afb1b8" style="fill: var(--color4, #afb1b8)" d="M13.296 7.147h-0.11c-0.011 0.001-0.022-0.002-0.031-0.009s-0.015-0.012-0.018-0.021l-0.098-0.215h-0.47l-0.098 0.215c-0.003 0.009-0.008 0.017-0.015 0.024-0.009 0.006-0.020 0.009-0.031 0.009h-0.11l0.415-0.905h0.145l0.42 0.902zM12.608 6.81h0.392l-0.166-0.368c-0.012-0.028-0.023-0.056-0.031-0.085-0.006 0.017-0.011 0.034-0.016 0.048l-0.015 0.038-0.164 0.368z"></path>
<path fill="#afb1b8" style="fill: var(--color4, #afb1b8)" d="M14.012 7.058c0.026 0.001 0.052 0.001 0.078 0 0.022-0.002 0.045-0.006 0.066-0.011 0.020-0.004 0.040-0.010 0.060-0.016 0.018-0.006 0.037-0.014 0.056-0.022v-0.204h-0.166c-0.004 0-0.008-0-0.012-0.002s-0.007-0.003-0.010-0.006c-0.003-0.002-0.005-0.005-0.006-0.007s-0.002-0.006-0.002-0.009v-0.070h0.322v0.347c-0.026 0.016-0.054 0.031-0.083 0.043s-0.060 0.023-0.092 0.031c-0.034 0.009-0.069 0.015-0.104 0.019-0.040 0.004-0.081 0.006-0.121 0.006-0.072 0.001-0.143-0.011-0.209-0.034-0.062-0.022-0.119-0.054-0.166-0.095-0.046-0.041-0.083-0.090-0.107-0.143-0.026-0.060-0.039-0.124-0.038-0.188-0.001-0.065 0.012-0.129 0.037-0.189 0.024-0.054 0.060-0.102 0.107-0.143s0.104-0.073 0.166-0.094c0.071-0.023 0.147-0.035 0.223-0.034 0.039-0 0.077 0.003 0.115 0.008 0.034 0.005 0.067 0.012 0.099 0.023 0.029 0.009 0.057 0.021 0.083 0.036s0.050 0.030 0.072 0.047l-0.040 0.056c-0.003 0.005-0.008 0.009-0.013 0.012s-0.012 0.005-0.019 0.005c-0.009-0-0.018-0.003-0.026-0.007-0.012-0.006-0.026-0.013-0.041-0.022-0.018-0.010-0.036-0.018-0.056-0.024-0.025-0.009-0.050-0.015-0.076-0.020-0.035-0.006-0.070-0.008-0.105-0.008-0.055-0.001-0.109 0.008-0.16 0.025-0.046 0.016-0.088 0.040-0.122 0.072-0.034 0.033-0.061 0.071-0.077 0.113-0.037 0.098-0.037 0.204 0 0.302 0.018 0.043 0.046 0.081 0.083 0.114 0.034 0.031 0.075 0.056 0.121 0.072 0.053 0.016 0.109 0.022 0.164 0.018z"></path>
<path fill="#afb1b8" style="fill: var(--color4, #afb1b8)" d="M15.336 7.043h0.453v0.103h-0.592v-0.905h0.142l-0.003 0.802z"></path>
<path fill="#afb1b8" style="fill: var(--color4, #afb1b8)" d="M16.261 7.147h-0.142v-0.905h0.142v0.905z"></path>
<path fill="#afb1b8" style="fill: var(--color4, #afb1b8)" d="M16.789 6.245c0.008 0.004 0.016 0.010 0.022 0.016l0.607 0.683c-0.001-0.011-0.001-0.022 0-0.032s0-0.020 0-0.029v-0.645h0.124v0.909h-0.071c-0.011 0.001-0.021-0.001-0.031-0.005s-0.016-0.010-0.022-0.017l-0.606-0.682c0 0.011 0 0.021 0 0.031s0 0.019 0 0.028v0.645h-0.119v-0.906h0.074c0.008 0 0.016 0.001 0.023 0.004z"></path>
<path fill="#afb1b8" style="fill: var(--color4, #afb1b8)" d="M18.587 6.241v0.1h-0.503v0.299h0.408v0.096h-0.408v0.309h0.503v0.1h-0.649v-0.903h0.649z"></path>
<path fill="#afb1b8" style="fill: var(--color4, #afb1b8)" d="M3.706 0.649l6.305 1.546v5.416l-6.305-1.545v-5.417zM3.302 0.187v6.142l7.113 1.744v-6.141l-7.113-1.745z"></path>
<path fill="#afb1b8" style="fill: var(--color4, #afb1b8)" d="M7.114 10.925l-7.114-1.746v-6.141l7.114 1.745v6.142z"></path>
<path fill="#afb1b8" style="fill: var(--color4, #afb1b8)" d="M3.42 0.58l6.223 1.526-2.647 2.286-6.224-1.527 2.647-2.285zM3.302 0.187l-3.302 2.85 7.114 1.745 3.301-2.85-7.113-1.745z"></path>
<path fill="#afb1b8" style="fill: var(--color4, #afb1b8)" d="M7.515 10.579l2.901-2.505-2.901-0.712v3.217z"></path>
</symbol>
</defs>
</svg>
